<?xml version="1.0" encoding="utf-8"?>
<!-- Generator: Adobe Illustrator 19.2.1, SVG Export Plug-In . SVG Version: 6.00 Build 0)  -->
<svg version="1.1" id="Layer_1" xmlns="http://www.w3.org/2000/svg" xmlns:xlink="http://www.w3.org/1999/xlink" x="0px" y="0px"
	 viewBox="0 0 302.2 208" style="enable-background:new 0 0 302.2 208;" xml:space="preserve">
<style type="text/css">
	.st0{fill:#FFFFFF;}
</style>
<g>
	<path class="st0" d="M71.8,90.6c0,4-0.9,7.2-2.7,9.8c-0.6,1-1.5,2.5-2.6,4.5c-0.6,0.9-3.3,3.2-7.9,6.9c0.1-0.3,0.4-0.8,0.8-1.4
		c0-0.1,0.1-0.2,0.2-0.2h-0.8c0.9,0-0.3,0.5-3.4,1.4c0.7-0.4,1.8-1.2,3.2-2.3c0.1-0.2,0.1-0.4-0.2-0.6l-20.6,10.6
		c-0.1-0.4-0.3-0.6-0.6-0.6c-1.5,0-5.8,1.6-12.9,4.7c-0.3,0.1-1,0.6-1.9,1.6c0-0.8,0.1-1.1,0.3-1.1c-0.6,0.6-1.1,1.6-1.3,2.7
		c-0.2-0.1-0.6-0.4-1.3-1c-3.5,1.4-5.2,3.9-5,7.6c-0.2,0-0.5-0.1-0.9-0.4c-0.4-0.3-0.7-0.4-0.9-0.4c-0.2,0.3-0.9,1.8-1.9,4.3h-0.8
		c-0.1-1.1-0.1-2.4,0-3.9c-0.2-0.4-0.5-0.8-0.8-1c-0.2,0.2-0.3,0.6-0.3,1.1c0-0.5-0.2-0.9-0.5-1.1c-0.2,0.2-0.8,1-1.8,2.4
		c0.1-1.8,0.1-3,0-3.5c-0.3,0-0.5,0.2-0.6,0.5c-0.2,1-0.8,2.4-1.6,4.2c-0.1-0.1-0.3-1-0.5-2.6c-0.3-1.2-0.2-2.2,0.5-3.1
		c-0.8-0.9-1.5-1.3-2.3-1.3c-0.4,0-0.9,0.1-1.4,0.2c-0.5,0.1-1,0.2-1.3,0.2v-2.4c1.2-0.2,2.7-0.6,4.7-1.3c0.5-1.5,1.8-4.9,3.9-10.3
		c1.2-3.1,2.6-7.1,4.2-11.9v-0.5c-0.4,0.3-0.8,0.9-1.1,1.6c4.6-15.1,8.9-32,12.7-50.6c2.5-12.4,3.9-21.9,4.2-28.3c0-0.9,0-2,0-3.5
		c0-1.5-0.1-2.6-0.2-3.4c0-0.7,0-0.9,0-0.3v-2.6c0.2,0.8,0.6,1.8,1.3,3.1c0.6-1.1,1-2.3,1-3.5c0-1-0.2-1.9-0.5-2.9
		c0.1-0.5,0.6-1.7,1.6-3.5c-0.3,3.3-0.5,5.6-0.5,6.9c0.3-0.6,1-1.8,1.9-3.5c0.5-0.6,1.4-1.5,2.6-2.6c0.2,0.2,0.6,0.9,1.1,1.9
		c0.2-0.1,0.4-0.5,0.5-1.1v1.1c1,0,1.7,0.1,2.1,0.3c0.2-0.2,0.4-0.6,0.6-1c0.2-0.5,0.3-0.8,0.4-0.9c-0.1,0.5-0.1,1.6,0,3.2
		c0.7-0.3,1.3-0.9,1.8-1.8l-1-1.1c0.6,0.4,1.6,1.1,2.9,1.9c0.5-1.1,0.8-2.2,0.8-3.4c0.1,0.6,0.3,1.6,0.6,2.7
		c0.1-0.6,0.4-1.3,0.8-1.9c0.2,1.2,0.7,3,1.4,5.3H48c0.1-1.6,0.5-3.6,1.1-6.1c0.5-1.1,1.3-1.6,2.4-1.6c0.6,0,1.3,1,2.1,2.9
		c-1.4,0-2.3,0.6-2.6,1.9c-0.3,1-0.3,2.1,0,3.5c0.5,3.4,0.8,6.8,0.8,10.1c0,5.5-0.8,10.7-2.4,15.6c0-0.4-0.2-0.9-0.6-1.4
		c-0.3,1.6-0.9,4-1.8,7.2c-0.2-0.2-0.4-0.3-0.6-0.3c-0.4,0.9-0.9,2.1-1.4,3.9c0.1,0.5,0.2,1.4,0.2,2.6c-0.4,0.5-1,1.4-1.8,2.7v-1.6
		c-0.1-0.1-0.2,0-0.3,0.3c-0.5,1.9-1.7,5.7-3.4,11.3c1.1-0.1,3.3-0.1,6.8,0c3.9,0.2,6.9,0.7,9.2,1.4c4.6,1.7,8.5,4.8,11.6,9.3
		C70.2,81,71.8,85.7,71.8,90.6z M26.4,12.7C26.2,13,26,14,25.8,15.5c-0.3-0.6-0.8-1.7-1.3-3.2c0.4,0.4,0.7,0.6,0.8,0.6h0.8
		C26.2,12.8,26.3,12.7,26.4,12.7z M25.8,107.5h-0.5l-0.8,1.9l0.5,0.2L25.8,107.5z M27.2,103c-0.6,0.5-1.1,1.7-1.4,3.5
		c-0.2,0-0.4,0.1-0.5,0.2c0.1,0.2,0.3,0.5,0.5,0.8C26.7,105.3,27.2,103.8,27.2,103z M51.2,94.8c0-0.9-0.3-2.1-1-3.7l-0.8,2.6
		c0-1.4-0.5-3.2-1.4-5.5c0,1.1-0.1,1.8-0.3,2.1c0-0.5-0.6-1.4-1.9-2.6H47c-0.5-1.7-3.4-2.6-8.7-2.6c-2,0-3.3,0.4-3.7,1.3
		c0.7,0,1.9,0.3,3.4,0.8l-3.5,0.8c-1.1,3.3-2.7,8.1-4.8,14.2c0-0.2,0.1-0.3,0.2-0.3c0.1,0.2,0.2,0.5,0.2,1c0,0.5-0.2,1.4-0.7,2.6
		c-0.5,1.2-0.7,1.9-0.7,2.1c0.5-0.6,1.1-1.5,1.6-2.6c0.2,0.2,0.3,0.4,0.2,0.5c0-0.3-0.2-0.1-0.6,0.6c-0.5,1-1,1.6-1.4,1.9l-0.3,0.3
		c-0.1,1.2-0.3,2.1-0.6,2.9c0-0.5,0.3-0.8,1-0.8c0.2,0.9-0.3,2-1.4,3.5H28c-0.5,0.8-1.2,1.8-1.9,3.1c1.6-0.5,3.3-1.6,5.2-3.2
		c-1.2,0.9-2,1.2-2.6,1c0.6-0.5,1.3-1,1.9-1.4c-1.2,0.4-1.9,0.5-2.3,0.3c3.4-2,8.4-4.9,15-8.5l-3.4,1c2-1.5,4.1-3,6.1-4.3
		c2.5-1.8,3.9-3.6,4.2-5.5C50.9,94.8,51.2,94.3,51.2,94.8z M32.2,88.5c-0.3,0.1-0.7,0.3-1.1,0.6c-1,2.9-2.3,7.2-3.9,12.9l0.8,0.5
		L32.2,88.5z M28.3,112.9l-0.6,0.8l-0.5-0.3l1-1L28.3,112.9z M30.1,10.5h-0.5V8.9h0.5V10.5z M32.4,100.1l-1,1.8l-0.6-0.2l1.1-1.8
		L32.4,100.1z M33.3,85.8c-1.1,0.5-1.6,1-1.6,1.3H33C33,86.6,33.1,86.1,33.3,85.8z M32.7,87.9v-0.6h-1v0.6H32.7z M34.5,10.1h-0.6
		l-0.3-1.4H34L34.5,10.1z M36.2,89.7c-0.6,0-1.1,0.4-1.4,1.1c0.2-1.1,0.5-1.9,1-2.4C35.7,88.9,35.9,89.4,36.2,89.7z M38,0.6
		l-0.3,0.5l-0.8-0.8L37.2,0L38,0.6z M37.7,66.3v-1H37v1H37.7z M38,65.2v-1.1h-0.6v1.1H38z M38.3,63.9v-1.6h-0.5v1.6H38.3z M39,65.2
		L38.5,65L38,66.2l0.5,0.2L39,65.2z M42.7,59.6l-0.5,1.8h-0.5l0.3-1.8H42.7z M43,58.9h-0.6v-1.1H43V58.9z M46.9,50.4h-0.5v-1.3h0.5
		V50.4z M53.3,28h-0.8v-2.3h0.8V28z M53.5,16.3H53v-1h0.5V16.3z M53.5,24.8H53v-8.2h0.5V24.8z M57.3,112.5l-1.6,0.8v-0.5l1.4-0.8
		L57.3,112.5z M66.3,89.5c0-1.9-0.9-4.3-2.6-7.1c0,0.5-0.1,0.9-0.3,1.1c-0.1-1-0.9-2.2-2.4-3.6c-1.5-1.4-2.7-2.3-3.7-2.7
		c6,4.8,8.8,10.2,8.4,16.1C66.1,92,66.3,90.7,66.3,89.5z M61.2,63.3l0.5,0.5h1.1c-0.4,0-0.3-0.2,0.5-0.6c1,0.3,1.2,0.9,0.6,1.8
		c-0.5,1.2-0.6,2.1-0.2,2.9c0.5,0.3,1.2,0.9,1.9,1.8l2.4,0.5c1.1,0,1.4-0.5,1-1.6c0.3-0.2,0.8-1.3,1.4-3.4c0.4,0.4,0.7,0.6,0.8,0.6
		c1.4,0,2.1-0.7,2.1-2.1c0-1.9-0.9-2.9-2.7-2.9c-0.1,0-0.2,0.1-0.4,0.2c-0.2,0.2-0.3,0.2-0.4,0.2c-0.1,0-0.4-0.2-1-0.6
		c-0.5-0.4-0.9-0.6-1-0.6c-0.5,0-1.4,0.4-2.7,1.1c-0.2,0.2-0.7,0.6-1.4,1.1c-0.1,0-0.2-0.1-0.2-0.2c0-1.1-0.4-1.6-1.3-1.6
		c-0.3,0-0.7,0.3-1.1,1V63.3z M65,103.5l-0.3-0.3l-3.1,3.2l0.2,0.3L65,103.5z M63.9,65.5l0.5-0.2v0.2l-0.3,0.2L63.9,65.5z"/>
	<path class="st0" d="M109,103c-0.5,0.4-2.5,1.6-6,3.4c0.2,0.4,0.4,0.6,0.5,0.6c0.4,0,0.8-0.2,1.1-0.5c-0.1,0.3-0.2,0.5-0.2,0.6
		c-0.2,0.1-0.1,0.2,0.3,0.2c0.3,0,0.5-0.2,0.6-0.5c0.3,0.6,0.4,1.3,0.3,2.1c-0.1,0.8-0.3,1.2-0.5,1.4c-1.8,0.6-3.9,2-6.3,4
		c-0.1,0-0.3-0.1-0.6-0.3c-0.3-0.2-0.6-0.3-0.8-0.3c-0.5-0.1-1.4,0.3-2.7,1.1l-0.2,1c-0.8,0.3-1.4,0.7-1.9,1.1
		c-0.2,0.1-0.1,0.2,0.3,0.2c0.4,0.1,1.1-0.1,2.1-0.5c-0.6,0.2-1.5,0.5-2.6,0.8c-0.3,0.4-0.8,1-1.3,1.6c-0.6-0.1-1.6-0.1-2.9,0
		c-1.2,0.6-2.3,1.2-3.4,1.6c-1.4,0.9-2.3,1.8-2.7,2.7c0.1-0.5-0.1-1.1-0.5-1.8c-0.8,0.5-1.1,1.1-1.1,1.8c-0.1,0.5-0.1,1,0.2,1.3
		l-0.6-0.8c-0.5,0.5-1.3,1.4-2.3,2.7c-0.1-0.2-0.3-0.5-0.6-1c-1,0-1.5,0.5-1.6,1.4c-0.1,1-0.2,1.8-0.2,2.4v0.5h-1.1
		c0-0.3,0.1-0.6,0.3-1V128c0.1-0.3,0.1-0.8-0.2-1.4l-2.6,2.1c-1.4-0.1-2.4-0.9-3.1-2.3l-1,0.8c0-0.5-0.2-1-0.5-1.4
		c-0.1,0.1-0.2,0.3-0.3,0.5c-0.1,0.2-0.2,0.4-0.3,0.5c0-0.4,0.3-1.2,0.8-2.3l-0.5-0.3c-0.3,0.4-0.7,0.9-1.1,1.4
		c0-0.3,0.2-1.1,0.5-2.4c0.1-1.3-0.2-1.9-1-1.9c-0.3-0.1-0.9,0-1.8,0.3c0,0.3,0.1,0.6,0.2,0.8l0.8-0.5c0.3,0,0.1,0.4-0.8,1.1
		c0-0.6-0.3-1.2-0.8-1.8c0-0.1-0.1-0.1-0.3,0.2c0,0.5,0,1.3,0,2.4c-0.1-0.6-0.1-1.4,0-2.3c-0.1-0.1-0.4-0.2-0.8-0.2
		c-0.2,0-0.4,0.1-0.5,0.2c-0.1,0.2-0.2,0.2-0.3,0.2c0.2-0.1,0.3-0.3,0.4-0.5c0.1-0.2,0.1-0.4,0.2-0.5c-0.4-0.5-0.9-1.1-1.4-1.6
		l1.4,1c0.2-0.2,0.1-0.6-0.3-1.1l3.2-4.2c-0.1-0.1-0.4-0.2-0.8-0.2c0.6,0-0.5,0.3-3.5,1c1.1-0.5,2.6-1.3,4.7-2.4c0-0.2,0-0.5,0-1
		c0.2-0.2,0.9-1.3,2.1-3.2c0.2-0.2,0.8-0.7,1.9-1.4c1-0.7,1.5-1.4,1.5-2.1c0.6-0.2,1.3-0.6,1.9-1.3c6-12.8,10.7-29.6,14-50.4
		l0.5-8.2c-1.7,10.2-2.7,16.1-2.9,17.7c-1.5,6.8-3.2,12.5-5.2,17.2c3.1-16,4.8-26,5.2-30.1l0.3,0.6c0.1-0.2,0.2-0.5,0.2-0.8
		c0.1-0.2,0.1-0.4,0-0.6c-0.6,0.5-1,0.6-1,0.3c0-0.1,0.1-0.3,0.2-0.7c0.2-0.4,0.2-0.7,0.2-1l1-25.1c0.1-3.4,0.7-6.3,1.9-8.7v-0.6
		c0.3-0.2,0.8-0.5,1.4-0.8c0.1-0.4,0.2-0.7,0.2-0.8h0.3c0.2,0,0.4,0,0.5,0c0,0.2,0.1,0.5,0.3,1l-1.3,26.7c0.3-1.2,0.9-5.5,1.6-13
		l-0.2-7.1c0.2-1.7,0.6-3.6,1.3-5.8c0.1,0.4,0.3,1,0.5,1.6c0.6-0.5,1-1.7,1.1-3.4c0.7,0.4,1.3,0.6,1.8,0.6c0.2-0.2,0.6-0.6,1.1-1.3
		v1.3c0.3,0.1,1.1,0.2,2.3,0.3c0.7,0.1,1.1,0,1.1-0.3c-0.1,0.5-0.1,1,0.2,1.4c0-0.5,0.3-1.2,0.8-2.1c0.5-0.9,1-1.2,1.4-1.1v1
		c-0.8,0.4-1.2,0.9-1.4,1.3l0.2,1.1c0.9-0.3,1.8-1.2,2.9-2.6l-0.3,2.6c0,1.1,0.7,1.7,2.1,1.8c-0.4,1-0.7,1.8-0.8,2.6
		c-0.1,1.3-0.1,4.9,0.2,10.8l-0.3,2.9c-0.1,1.1,0.1,1.8,0.6,2.1l-1.6,15.1c-1.1,10.8-4.5,26.1-10.3,45.9c0,0.2-0.2,0.8-0.6,1.8
		c-0.2,0.3-0.3,0.5-0.2,0.6c0.3-0.2,0.7-0.3,1.1-0.2c0.2,0.1,0.6,0.6,1.3,1.4H95c0.6-0.6,1-1.3,1.1-2.1c0,0.1,0.1,0.4,0.3,0.8
		c0.4,0,0.7-0.2,0.8-0.6c-0.3,0.6-1.2,1.4-2.7,2.4c1,0.2,1.7,0.3,2.3,0.3c2.6-1,4.1-1.4,4.5-1.4c0.3,0,0.7,0.2,1.1,0.7
		c0.4,0.5,0.7,0.7,0.8,0.7c0.2,0.1,0.4,0,0.6-0.3c0.2-0.3,0.4-0.4,0.6-0.3c1.2,0.1,2.7,0.7,4.7,1.8L109,103z M64.4,118.5l-0.3-0.3
		l-0.5,1l0.3,0.2L64.4,118.5z M65.7,120.8c-0.3-1.2-0.4-2.1-0.3-2.9c-0.2,0.2-0.6,1.1-1.3,2.6C64.9,120.4,65.5,120.5,65.7,120.8z
		 M65,125.6l-0.5-0.2l0.2-1.4l0.5,0.2L65,125.6z M69.1,124.9l-0.6-0.2l-0.3,1.4h0.5L69.1,124.9z M69.6,106.3l-0.5,0.6l-0.3-0.2
		l0.5-0.6L69.6,106.3z M76.8,89.7c-0.3,1.3-1.3,3.5-3.1,6.8c-0.8,1-1.4,2.1-2.1,3.4c0.9-2.4,2.2-5.8,4-10.3L76.8,89.7z M78.6,80.3
		l-0.5,1.1l-0.5-0.2l0.3-1.1L78.6,80.3z M81.3,63.9H81l0.2-1l0.3,0.2L81.3,63.9z M83.1,55.4l-0.3,2.1l-0.5-0.2l0.3-1.9H83.1z
		 M90.5,121.6c-1.7,1-3.5,2.2-5.3,3.7c0.4,0.9,1.1,1.3,1.9,1.4c0.2,0.1,0.4,0.1,0.6,0v-0.3c-0.1,1-0.2,1.4-0.3,1.3
		c-0.1-0.1-0.4-0.1-0.8,0l-0.5,0.2c-0.6-0.6-0.8-1-0.5-1c-0.4-0.3-1.4-0.6-3.1-0.8C85.2,124.2,87.8,122.7,90.5,121.6z M83.4,53.1
		L82.9,53l0.2-2.4h0.6L83.4,53.1z M85.3,38.6l0.8-15.5c-0.2-0.1-0.6,1.7-1.1,5.3C85.4,33,85.5,36.4,85.3,38.6z M90.3,118.7l0.2-0.6
		h-1.1l-0.2,0.5L90.3,118.7z M91.9,96.3h-0.3l-1,1.4L91,98L91.9,96.3z M92.6,93.4h-0.5l-0.8,2.3h0.3L92.6,93.4z M93.5,99.2l-0.3-0.6
		l-1.9,1.1v0.6L93.5,99.2z M96.6,116.6l-0.8,0.2v-0.5l0.8-0.3V116.6z M100.9,117.7c-0.1,0-0.3,0.1-0.6,0.2c-0.3,0.2-0.6,0.2-0.9,0.1
		l-1.9-0.2c0.5-0.4,1.2-0.6,1.9-0.5L100.9,117.7z M102.9,97.9l-0.8,1.1l-0.3-0.5l0.8-1L102.9,97.9z M105.5,51.2l-0.6-0.2l0.2-1.6
		l0.6,0.2L105.5,51.2z M105.5,98.5h-0.6l0.2-1l0.5,0.2V98.5z M106.1,44.9h-0.6l0.2-1.6h0.6L106.1,44.9z M108.7,102.2h-0.5l-0.5,1.3
		h0.5L108.7,102.2z"/>
	<path class="st0" d="M187.1,73.4c0,1.9-0.8,4.8-2.4,8.5c-0.6,1.8-1.6,4.7-2.7,8.7c-1.3,1.4-3.1,3.8-5.5,7.1l0.8-1.6
		c0.6-1.2,0.9-1.9,0.6-2.1c-0.9,1.2-2,3.1-3.5,5.8c-0.6,0.5-1.6,1.6-2.9,3.1c-0.6,1.2-1.6,2.9-2.7,5.2c-2.8,4-5.9,7.2-9.3,9.7
		c-5.9,4.4-9.8,6.6-11.8,6.6c-0.3,0-0.8-0.1-1.4-0.3c-0.6-0.2-1.1-0.3-1.3-0.3c-0.9,0-2.1,0.2-3.6,0.6c-1.6,0.4-2.8,0.6-3.6,0.6
		c-3.2,0-6.7-1.7-10.3-5.2l-3.2-0.6c-0.1,0.3-0.2,0.8-0.2,1.3c0,0.5,0.1,1.2,0.2,1.9c-1.1-1.4-2.5-3.2-4.3-5.5
		c-0.1-0.5-0.4-1.5-0.8-2.9c-0.3-0.2-0.6-0.4-1-0.6c-0.2-1.4-0.5-3.5-1-6.4c0.5-0.6,0.8-1.1,0.8-1.4c-1.1-2.5-1.8-4.6-2.1-6.3
		c0.3-0.3,0.3-3.2,0-8.7c1-7.8,3-15.6,6-23.2c1.2-3.3,3.5-6.8,6.9-10.5c3.6-4.3,6.9-6.8,9.8-7.4c0.4,0,2.5-0.9,6.1-2.6
		c-7.4,3-13.3,7.7-17.7,14c-0.1,0.1,0,0.3,0.3,0.6l0.8-0.6c-1.4,1.5-2.5,3.3-3.4,5.5l0.6,0.3c3.3-4.6,8.7-9.5,16.3-14.7
		c-0.3,0-1.2,0.3-2.7,0.8c6.9-4.1,12.2-6.1,15.9-6c-0.1,0-0.3,0.2-0.6,0.5c0.3,0.2,0.7,0.3,1.1,0.3c0.5,0,1.3-0.1,2.4-0.3
		c1.1-0.2,1.9-0.3,2.4-0.3c0.3,0,1,0.4,2.2,1.1c1.1,0.8,1.8,1.1,2,1.1c0.4,0,0.6-0.1,0.6-0.2c-0.1-0.2,0-0.2,0.2-0.2
		c0.3,0.1,0.8,0.5,1.4,1c0.6,0.6,2.2,2.3,4.7,5.2c0.4,1,1.5,2.3,3.2,3.9l0.6-0.6c-0.8-0.3-1-0.7-0.9-1.3c0.2-0.5,0-1-0.4-1.3
		c1.7,0,3,0.4,3.9,1.1c0.6-0.7,1-1.2,1-1.4c0.4,1.2,1.3,2.4,2.6,3.7c0.7,0.9,1.9,3.6,3.4,8.2c0,0.4,0.1,1.1,0.2,2.1
		c0.2,0.4,0.7,0.9,1.4,1.3C186.8,71.5,187.1,72.5,187.1,73.4z M132.3,56.4l-2.1,2.3l-0.2-0.5l1.9-1.9L132.3,56.4z M134.9,54.7
		l-2.1,1.6l-0.2-0.6l1.9-1.4L134.9,54.7z M160.5,70.2c-1.1-1.6-1.7-2.8-1.9-3.7c-1.4,1-3.7,2.8-6.8,5.5c0.1-0.6,0.5-1.4,1.3-2.4
		c-4.9,6.1-8.5,12.9-10.8,20.4c-0.4-0.6-0.7-1-0.8-1c-0.8,0-1.5,1.3-2.2,3.9c-0.7,2.6-1,4.4-1,5.5c0,2.1,0.5,4.9,1.4,8.4
		c4.3-1.2,8.4-4.3,12.4-9.5c4-5.2,5.9-9.8,5.8-14c0.4,0.2,0.8-0.1,1-1l0.5-1.1c-0.9-0.3-1.8-0.7-2.7-1.1c0.1-0.5,0.2-1,0.2-1.3
		c0-1.1-1.7-2-5.2-2.9l4-0.2c0.5,0.2,1.3,0.7,2.3,1.4c0.1-0.3,0.3-0.7,0.5-1.1c-0.6,0-1-0.1-1.1-0.2c0.5-0.5,0.7-1,0.6-1.3
		c-0.4-0.3-1-0.7-1.8-1.3c1.6-0.5,2.7-1.2,3.2-2.1c-0.3-0.4-0.8-0.9-1.3-1.4c0.3,0,0.8,0.1,1.3,0.2
		C159.9,70.1,160.3,70.2,160.5,70.2z M146.2,46.7h-1V46h1V46.7z M153.1,46.9c-1.2,0.3-3.6,1.1-7.2,2.4h1.4
		C148,49.4,149.9,48.6,153.1,46.9z M148.3,45.9h-1v-0.6h1V45.9z M155.4,80.5h-0.8v-0.6h0.8V80.5z M184,54.1h-0.6v-1.4h0.6V54.1z"/>
	<path class="st0" d="M302.2,96.6c-2.3,1.7-5.6,4-10,6.9v1.4c0.9,0.5,1.4,0.8,1.6,0.8c0.6,0,1.6-0.2,2.8-0.6
		c1.2-0.4,2.2-0.6,2.8-0.7c-1.4,1.1-3.3,2.4-5.8,3.9l-3.7,1.4c-1.7,0.6-3,1.6-3.9,2.7h0.3c0.1,0.1,0.3,0.2,0.6,0.2
		c1-0.1,4.1-1.8,9.5-5l1.1,0.3l-21.9,11.8l0.3,0.3c2.4-0.2,7.1-1.1,14.3-2.6c0.2,0.2,0.5,0.4,1,0.6l-25.9,10.1c1,0.4,2,0.6,3.2,0.5
		c2.5-0.2,10-2.8,22.7-7.9c1.8-0.8,3.7-1.8,5.6-3.1c0.1,0.5,0.3,0.9,0.5,1.1c0.3-0.2,0.6-0.3,0.8-0.3c-7.2,3.2-16.9,7.1-29,11.6
		c-6.9,2.6-13.1,4.8-18.8,6.8c-0.5,0.4-0.8,0.8-0.6,1.1c-0.1-0.1-0.3-0.3-0.6-0.6c-0.3,0.5-1,3.1-2.1,7.7c0.3,0.1,0.7,0,1.1-0.3
		c-0.3,0.2-0.7,0.6-1.1,1.1c-4.7,18.4-9.3,32.5-13.7,42.3c-0.5,0.9-2,2.4-4.3,4.7c-0.1,0-0.4-0.1-0.9-0.2c-0.5-0.2-0.9-0.2-1.2-0.2
		c-0.3,0.1-1,0.7-2.1,1.9c-1.1,1.1-1.8,1.7-2.1,1.9c-2.9,1.7-4.9,2.6-6.1,2.7l-1.8,0.3c0-0.1,0.1-0.3,0.2-0.5l-0.2-0.8
		c-0.1-0.9-0.9-1.6-2.4-2.1l-1.1,0.6c0.1-1.2-0.1-2.1-0.5-2.9c-1.2-2.3-1.8-3.6-1.8-4l0.5-1.3c-0.2-3.6-0.4-9.2-0.6-16.7
		c0,0.5,0.4,0.8,1.1,0.8l0.3-1.3c-0.4-3.7,0.5-7.5,2.7-11.6c1-1.5,2.7-4.5,5.2-9c1.1-1.8,3.9-5,8.4-9.5c0.2-0.1,0.4-0.6,0.6-1.6
		c-0.2-0.3-0.4-0.5-0.6-0.5c0.4-0.1,0.8-0.4,1-0.8c-0.2-0.2-0.5-0.3-0.8-0.2c-0.8,0.1-2.2,0.9-4.3,2.3c0.2,0.1,0.6,0.2,1.1,0.2
		c-2,0.6-4.7,2.2-7.9,4.7c-8.7,6.8-13.6,14.7-14.8,23.7c-1,6.8-1.4,10.7-1.3,11.8c0.2,1.3,0.6,2.4,1.1,3.4c0.2,0.5,0.1,1.6-0.3,3.1
		c-0.8,0-1.4-0.2-1.9-0.6c-0.6-1-1.3-2.2-1.9-3.7l-2.3-12.6c-0.8-4.7,0.4-10.8,3.5-18.4c2.5-6.1,5.3-11,8.4-14.7
		c0.7-1.1,2.1-2.6,4-4.5c1.1-0.9,2.6-2,4.7-3.4c0.3-2,1.4-3.6,3.2-4.8c2.8-1.2,6.8-3,11.9-5.5c-0.1-0.3-0.1-0.9,0-1.7
		c0.1-0.8,0.2-1.3,0.2-1.5c0-0.3-0.1-0.6-0.3-0.8c-1.9,1.1-4.1,2-6.6,2.7c-0.9,1.1-1.5,1.7-1.9,1.8c-0.2,0-0.5-0.1-0.7-0.2
		c-0.3-0.1-0.5-0.1-0.7,0c-0.5,0-3.2,1.3-8,4c2-1.1,5-2.8,8.9-5.2c0.3-0.4,1-1,1.9-1.8l7.2-1.8c0.1-0.3,0.4-1.3,0.8-3.1l-0.6-2.3
		c-0.4,0.4-0.6,0.9-0.5,1.4l-0.6-0.5c-0.2,0.2-0.3,0.5-0.3,1c-0.2,0-0.5-0.2-1-0.6c-0.2,0-0.4,0.2-0.6,0.5c0.1,0.6,0.5,0.9,1.3,0.8
		c-1.8,0.4-4.5,1-8,1.6c0.6,0.2,1.5,0.4,2.6,0.6c-5.9-0.9-9.3-1.2-10.3-1.1c-0.4,0.1-1.1,0.3-2,0.6c-0.9,0.3-1.6,0.5-2,0.6
		c-2.1,0.2-4.8-0.5-8-2.1c-3.2-1.6-5.5-3.4-7-5.3c-0.3-1.1-1.2-2.8-2.7-5.2c0.3,0.2,0.6,0.3,0.8,0.2c0.3-0.4,0.5-0.9,0.5-1.3
		c-0.1-0.6-0.6-1.8-1.5-3.4c-0.9-1.6-1.4-2.7-1.4-3.4l-0.5-3.9c2.4-6.1,4-10.8,5-14c-1.9,10.4-2.9,15.5-2.9,15.1
		c0,0.6,0.2,1.3,0.6,1.9c0.1-1.4,1.3-6,3.7-13.7c0.8-2.3,2.4-4.7,4.8-7.4c0.4-1.1,3.9-6,10.5-14.7c-1,1.6-2,3.2-3.2,4.7
		c-1.2,2.3-1.6,3.9-1.3,5c2.3-3.6,6.1-8.8,11.4-15.5c-3,3.7-5.6,7.4-7.9,11.3c0.1,0.2,0.3,0.3,0.5,0.3l10.8-12.7
		c-0.1,0.5-0.8,1.7-2.1,3.4l1.3-0.2c-0.9,0.5-1.4,1.3-1.6,2.4c3.8-3.6,7.8-5.7,12.2-6.3c2.3-0.2,4.2,0,5.8,0.6l0.8-2.1
		c0,0.9-0.1,1.6-0.2,2.1c3.4,1.1,6.3,2.3,8.7,3.5L247,53l-0.2-1.6c-0.8-0.5-1.2-0.8-1.3-0.8c-0.3,0-0.5,0.3-0.5,0.8
		c-0.3-0.6-2-1.1-5-1.3l2.1-0.2c3.5-0.4,6.3,1,8.4,4.2c-0.2,0.2-0.4,0.3-0.6,0.3c-0.2,0-0.4-0.2-0.6-0.5l-0.8,1.1
		c0.4,0.5,1.3,1.1,2.6,1.8c0.1-0.3,0.3-0.8,0.6-1.4c0.2,1.5,0.1,2.5-0.3,2.9c0,0.5,0.6,1,1.8,1.4c-0.1-0.6,0.1-1.4,0.6-2.3
		c0.3,0.4,0.9,1.1,1.6,2.1l1-0.2c0.3-1.2,1-3,2.1-5.3c0.6,0.8,0.9,1.4,0.6,1.9l-0.6,1.3l0.5,4.2c0.5,0.4,0.9,0.6,1,0.6
		c0.4-0.1,0.7-0.3,0.9-0.5c0.2-0.2,0.3-0.3,0.4-0.3c0.9,1.2,1.3,1.9,1.4,2.3l0.2,1.8c0.1,0.8,0.2,1.3,0.3,1.6
		c0.3,3.4-1.6,10.4-5.6,20.9c-0.5,1.5-0.6,3.1-0.3,4.8c-0.3,2.4-0.9,6.1-1.6,11.1c1.3,0.5,2.6,0.7,4,0.5c-0.4,0.1,1-0.4,4.3-1.6
		c0,0.2,0,0.5-0.1,1c-0.1,0.4-0.1,0.7-0.1,0.8c0.5,0.3,0.9,0.5,1.1,0.5c0.3,0,0.8-0.2,1.4-0.5c0.6-0.3,1.1-0.5,1.4-0.5
		c0.3,0,0.8,0,1.4,0c0.6,0,1.1,0,1.4,0c1.4-0.1,3-0.6,4.8-1.6c-1,0.3-1.7,0.9-2.3,1.8c0.5,0.4,1.2,0.6,1.9,0.5
		c0.8,0,1.9-0.7,3.5-2.3c0.1,0.5,0.5,0.8,1.3,0.6c0.8-0.1,1.8-0.5,3.2-1c1.4-0.6,2.4-0.9,3.1-1c0.2,0,0.5,0,0.7,0.1
		c0.3,0.1,0.5,0.1,0.7,0.1c4-0.4,7.3-2.1,10-5c0.2,0.1,0.8,0.6,1.8,1.4c0.3-0.1,0.9-0.5,1.8-1.1L302.2,96.6z M201.4,158.1l-0.6-0.2
		l-0.5,1.1h0.8L201.4,158.1z M222.7,134.1c-4.5,2.6-7.5,4.4-8.9,5.5c-3.1,2.6-5.6,5.6-7.6,9c-0.6,0.8-1.6,1.9-2.7,3.4
		c-0.6,1.4-1.2,3.1-1.8,5.2c2-3.3,3.5-5.7,4.5-7.1c1.6-2.6,3.4-4.8,5.3-6.6c1.3-0.9,2.7-2.1,4.3-3.7c0.6-0.9,1.9-1.9,3.6-3
		C221.3,135.6,222.3,134.8,222.7,134.1z M206.9,127.2l-2.6,2.9l-0.5-0.6l2.7-2.6L206.9,127.2z M245.2,55.1c-0.1-1.3-1.2-2.2-3.4-2.7
		c-2.8-0.6-4.5-1.2-5-1.6c-0.3,2.1-0.9,5.2-1.8,9c0.1-0.7,0.4-3.7,0.8-8.9l-2.7,0.3c-6,0.6-11.6,5.7-16.9,15.1
		c-0.6,1.2-1.4,2.6-2.3,4.2c-5.3,11.5-7.7,18.8-7.4,21.9c0.1,0.4,0.3,0.8,0.6,1.1c0.3,0.3,0.5,0.5,0.6,0.6c0.1-0.9,0.6-2.1,1.4-3.9
		l0.8,0.6c-0.8,0.2-1.2,0.6-1.3,1.3v1.9c1.3,1.1,2.2,1.6,2.7,1.4h1.1c0.2-1.4,0.6-2.9,1.3-4.5c0.1-0.3,0.3-0.5,0.6-0.5
		c0.3,0,0.6,0.1,0.8,0.3c-0.3,1.1-0.8,2.7-1.4,4.8l5.8-0.6c2.4-0.2,6.3-2.1,11.8-5.6c0-0.3,0.1-0.6,0.3-1c0.2,0.2,0.3,0.5,0.3,0.8
		c0.6-0.7,0.9-1.7,0.6-2.9c0,0.2-0.2,0.6-0.6,1.3l-0.6-0.6c0.4-2,1.5-7.7,3.2-17.1c0,0.3-0.2,0.5-0.5,0.6c-0.4-1.5-0.3-5,0.5-10.5
		l0.6,0.5c-0.5,3.8-0.6,6.8-0.3,9c0.1-7.4,1.3-12.2,3.7-14.3c0.4,0.9,0.9,1.8,1.4,2.9c0.5-0.8,1.3-1.8,2.4-3.2
		c0.6,1.4,0.9,2.4,0.8,2.9C244.7,56.5,245.3,55.5,245.2,55.1z M208,96.6l-0.6-0.2l-0.3,1l0.6,0.2L208,96.6z M211.6,123.6l-4.2,3.4
		l-0.3-0.6l4.2-3.2L211.6,123.6z M209.9,63.8c-0.2-0.3-0.4-0.6-0.6-0.8c-0.5,1.1-0.9,1.8-1.1,2.1C208.6,65,209.2,64.6,209.9,63.8z
		 M213,98.9l-0.2-1.1c-0.6-0.3-2.2-0.6-4.7-1c0.4,0.5,0.7,1.4,0.8,2.6L213,98.9z M209,160.2c0.2,1.9,0.1,2.9-0.5,2.9
		c-0.1,0.1-0.2,0.1-0.3-0.2l0.6-0.5C208.8,162.1,208.9,161.4,209,160.2z M213.2,152.3l-1.6,2.3l-0.5-0.2l1.4-2.4L213.2,152.3z
		 M229.9,145.7h-0.6c-1.6,0.9-2.7,1.7-3.2,2.6c-0.2,1.1-0.5,2.5-1,4.2c-0.5,1.4-1.2,3.5-2.1,6.3c-0.2-0.2-0.3-0.4-0.2-0.6
		c0.3-1.3,1.1-4.6,2.4-10c-4.2,2-8.1,6.8-11.8,14.3c-0.5,1.2-0.8,2.8-0.8,4.8c-0.4,2-0.6,3.2-0.5,3.5c0,0.3,0.2,0.9,0.5,1.6
		c0.3,0.7,0.5,1.3,0.6,1.6c0.6-2.5,1.7-5.7,3.2-9.7c0.1,0.3-0.3,2.5-1.3,6.4c-0.4,0.9-0.8,1.9-1,3.2c-0.3,3.1-0.3,6.2,0,9.3
		c0.2,1.9,0.5,3.3,0.8,4.2l1.6-0.2c1.2-0.1,2-0.6,2.4-1.4c0.3-1.3,0.7-2.5,1.1-3.7c-0.5,0-0.8-0.2-0.8-0.6c0.3-0.2,0.5-0.3,0.6-0.2
		c0.4,0.3,0.7,0.5,1,0.5c-0.2-0.2-0.4-0.5-0.5-0.8l1-1.3c0.4-0.9,0.6-1.8,0.5-2.9c-0.2,0-0.4-0.1-0.6-0.2c0.6-0.5,1.8-3.1,3.5-7.6
		c1.3-2.4,2-5.6,2.3-9.7l-1.1,0.2C227,156.5,228.3,151.8,229.9,145.7z M231.4,93.9l-0.2-1.4l-1,0.8c-1,0.1-2.2,0.5-3.7,1.3
		c0,0.3-0.2,0.7-0.6,1.1c-3,0.9-5.5,1.4-7.4,1.6c-1.6,0.1-3,0.2-4.2,0.2c-0.5,1.2-0.8,1.9-0.6,2.3l5-0.5c2.3-0.2,5.4-1.2,9.3-3.1
		C228.7,95.5,229.8,94.7,231.4,93.9z M223.1,203.3l-1.3,1.1c0,0.2,0.2,0.5,0.5,0.8c-1.4,0.3-3.9,1.2-7.4,2.7c3.2-3.1,5.6-4.8,7.1-5
		L223.1,203.3z M217.7,56.5l-0.5-0.5l-1.1,1.4l0.5,0.5L217.7,56.5z M221.7,204.8l-0.6-0.5l-0.3,0.3l0.5,0.6L221.7,204.8z
		 M222.2,162.4l-0.3,1.1l-0.6-0.3l0.3-1L222.2,162.4z M222.3,160.8L222,162l-0.5-0.2l0.3-1H222.3z M229.9,143.3
		c0.1-0.2-0.1-0.6-0.5-1.1c-1.2,0.9-2.1,1.9-2.9,3.1C228.5,144.5,229.6,143.8,229.9,143.3z M231.8,204.1c-0.4,0.4-1,0.7-1.6,0.8
		c-0.3,0-0.9-0.4-1.6-1.3c0.1,0,0.3,0.1,0.5,0.2c0.2,0.2,0.5,0.2,0.9,0.2c0.4,0,0.8,0,1.2,0H231.8z M248.9,53.9
		c-0.1-0.4-0.4-1.1-0.8-2.1c-0.2,0.4-0.3,1.3-0.2,2.6C248.1,54.2,248.5,54,248.9,53.9z M262.9,125.4l-0.2-0.6l-1.1,0.2l0.2,0.6
		L262.9,125.4z M265.6,71.8l-1.1,1.8l-0.6-0.3l1.1-1.8L265.6,71.8z M265.3,62.6l-1.1,0.6v-0.5l0.8-0.6L265.3,62.6z"/>
</g>
</svg>
