<?xml version="1.0" encoding="utf-8"?>
<!-- Generator: Adobe Illustrator 19.2.1, SVG Export Plug-In . SVG Version: 6.00 Build 0)  -->
<svg version="1.1" id="Layer_1" xmlns="http://www.w3.org/2000/svg" xmlns:xlink="http://www.w3.org/1999/xlink" x="0px" y="0px"
	 viewBox="0 0 40 35" style="enable-background:new 0 0 40 35;" xml:space="preserve">
<style type="text/css">
	.st0{fill:#FFFFFF;}
</style>
<path class="st0" d="M40,2.5C40,3.9,38.9,5,37.5,5h-35C1.1,5,0,3.9,0,2.5l0,0C0,1.1,1.1,0,2.5,0h35C38.9,0,40,1.1,40,2.5L40,2.5z"/>
<path class="st0" d="M40,17.5c0,1.4-1.1,2.5-2.5,2.5h-35C1.1,20,0,18.9,0,17.5l0,0C0,16.1,1.1,15,2.5,15h35C38.9,15,40,16.1,40,17.5
	L40,17.5z"/>
<path class="st0" d="M40,32.5c0,1.4-1.1,2.5-2.5,2.5h-35C1.1,35,0,33.9,0,32.5l0,0C0,31.1,1.1,30,2.5,30h35C38.9,30,40,31.1,40,32.5
	L40,32.5z"/>
</svg>
