<?xml version="1.0" encoding="utf-8"?>
<!-- Generator: Adobe Illustrator 19.2.1, SVG Export Plug-In . SVG Version: 6.00 Build 0)  -->
<svg version="1.1" id="Layer_1" xmlns="http://www.w3.org/2000/svg" xmlns:xlink="http://www.w3.org/1999/xlink" x="0px" y="0px"
	 viewBox="0 0 1175.5 314" style="enable-background:new 0 0 1175.5 314;" xml:space="preserve">
<style type="text/css">
	.st0{fill:#FEFEFE;}
</style>
<g>
	<path class="st0" d="M188.3,83.1c0-1.6-1.9,6.6-5.7,24.5c-0.2,0.2-0.8,0.9-1.7,2l0.3,0.7c-0.5,0.5-0.9,1.6-1.3,3.4
		c-0.5,0.9-1.3,1.8-2.7,2.7l-9.4,14.1c-2.5,3.6-3.7,6-3.7,7.4c-2.5,2-6.1,4.9-11.1,8.7c-13.4,8-26,15.2-37.9,21.4
		c-6.7,3.4-12.3,4.7-16.8,4c-0.5,0-0.7-0.2-0.8-0.5c-0.1-0.3-0.4-0.5-0.8-0.5c-0.9-0.2-2.6,0-5,0.7c-2.5,0.7-4.2,1-5.4,1
		c0.2-0.9,0.3-0.8,0.3,0.3l-1,11.1c-0.9,7.4-2.1,12.6-3.7,15.6c-1.6,3-4.2,10.7-8,22.9c0.2,0.9,0.2,2,0,3.3
		c-5.4,12.5-7.9,18.3-7.7,17.4c-0.5,4.2-0.2,7.4,0.7,9.4c0,0.9,0.2,1.5,0.7,1.7c-0.5,0.2-0.7,0.6-0.7,1c-0.7,1.1-0.6,2.7,0.3,4.7
		c-0.2,0.2-0.3,0.7-0.3,1.3c0.4,0.9,1,2.1,1.7,3.7c0.2,0.4,0.1,1.2-0.3,2.3c0.7,0.7,1.6,1.2,2.7,1.7c0.7-0.2,1-0.7,1-1.3
		c0-1.6-0.7-5.6-2-12.1c-0.2-0.2-0.7-0.9-1.3-2c0-0.4,0.6-0.9,1.7-1.3l-0.3-0.7l-1-1c-0.2,0.2-0.3,0.5-0.3,0.7
		c0.4-4.7,2.3-10.8,5.7-18.4c0-1.6-0.7,3.4-2,14.7c-0.7,8.3,0,15.2,2,20.8c0.4-0.5,1.6-1.8,3.3-4c0.4,2.7,0.7,4.4,0.7,5l-1,10.4
		c-2,0.7-3.6,0.9-4.7,0.7c-0.7,0-1.2-0.1-1.7-0.3c-1.6-2-2.5-3.7-2.7-5l1-5l-1.7-3.3c-0.2,0.4-0.5,1.1-0.7,2l-1,0.3
		c-1.1,0.4-1.1,0.8,0,1c-0.5,0-0.8-0.3-1-1c-1.1,0.9-1.7,1.7-1.7,2.3c-0.2,1.1,0.1,3.5,0.8,7c0.8,3.6,1.4,5.4,1.8,5.4
		c0.4,0,0.7-0.1,0.7-0.3c0-0.2,0.2-0.2,0.7,0c1.6,0,2.1,1.9,1.7,5.7c0,1.1,0.2,3,0.5,5.5c0.3,2.6,0.4,4.4,0.2,5.5
		c-0.2,1.3-1.8,2.2-4.7,2.7c-1.8-0.2-2.7-1.3-2.7-3.3c0.2-8.3,0.1-14.2-0.3-17.8c-0.2,0-0.7-0.5-1.3-1.3c-0.7,1.1-1.8,2.8-3.4,5
		c0.4-0.2,0.7-0.9,0.7-2l-1.3-1.3c-0.7-0.7-1.6-1.8-2.7-3.3c-0.2,0.2-0.5,0.6-0.7,1c0.2,0.2,0.1,1.1-0.3,2.7c0-0.2,0-0.6,0-1
		c-0.4,2-2,4.8-4.7,8.4l-2.3-0.3c-0.5,0-0.7-0.5-0.7-1.3c0.2-0.5,0.8-1.3,1.7-2.7c0.9-1.3,1.3-2.2,1.3-2.7c0.2-1.8,0.1-3.5-0.3-5
		c-1.3,0.9-1.9,1.3-1.7,1.3c-0.5,0-0.7-0.1-0.7-0.3h-0.3c-0.2,0.2-0.6,0.9-1,2h-2c-0.7-0.2-2.3-1.9-5-5c-0.5,0-0.7,0.2-0.8,0.5
		c-0.1,0.3-0.4,0.4-0.8,0.2c-2.7-0.2-4.2-1.5-4.7-3.7c-0.2-0.9-0.3-3.8-0.3-8.7c-0.2-3.6-1.1-5.9-2.7-7l5.4-43.2
		c0.4,0.2,1,0.6,1.7,1l0.3-0.3l0.3-1.3l-2.7-4h1.3c0-1.1,0.2-2.7,0.7-4.7c0,0.9,0.1,1.6,0.3,2c1.1-0.9,2.1-4.5,3-10.7
		c-0.2,0.2-0.8,0.2-1.7,0l0.3-3.7h2c1.3,0.2,2.2-1.4,2.7-5l0.3-2.7c-0.2,0-0.6-0.2-1-0.7c-0.2,0-0.3,0.1-0.3,0.3c0,0.2,0,0.6,0,1
		v-0.7h-1c-0.5,0-0.7,0.2-0.7,0.5c0,0.3-0.2,0.5-0.7,0.5c-0.2,0-0.3-0.1-0.2-0.3c0.1-0.2-0.1-0.3-0.5-0.3l-1.3-0.3
		c-0.7-0.2-1.2-0.3-1.7-0.3c-1.6-0.2-3-0.1-4.4,0.3c-9.2-0.4-14.3-1.1-15.4-2c1.3-0.7,5.5-1.1,12.4-1.3c0.2-0.9,0.7-2.1,1.3-3.7
		c0-0.2,0.8-0.7,2.5-1.5c1.7-0.8,2.5-1.6,2.5-2.5c1.3,0.9,2.5,1.1,3.4,0.7c-0.5-0.9-1.8-1.5-4-1.7c-1.1-0.2-1.7,0.2-1.7,1.3
		c0.2,0.5,0.2,0.8,0,1l-3-0.3c0-0.2,0.1-0.6,0.3-1v-1c-0.5-0.7-1-1-1.7-1c-0.5,0-0.8,0.3-1,1c-0.5-1.6-1.1-3.6-2-6
		c0.9-0.7,2.3-1.9,4.4-3.7c-0.2-0.2-0.7-0.3-1.3-0.3c-0.5,0-0.9,0.1-1.3,0.3c-0.5,0.2-0.9,0.3-1.3,0.3c-4,0.5-10.1,1.1-18.1,2
		l-1,0.7c-0.7,0.5-1.2,0.7-1.7,0.7l-2.7-0.3L0,165.2l0.3-2c6.7-2.9,15.5-4.6,26.5-5l0.3-0.7v-1c-0.2-0.2-1.2-0.4-3-0.7
		c-0.2,0-0.7,0.2-1.5,0.5c-0.8,0.3-1.3,0.4-1.5,0.2c-1.1,0-2.8,0-5,0h-2.7l-1-1.7c0.9-1.8,4.1-3.2,9.5-4.4c5.5-1.1,8.7-2.1,9.5-3
		c4.7-0.7,9.6-1.3,14.7-2c0.7-0.7,1-1.1,1-1.3c0-0.4-0.3-0.7-1-0.7c0.7-0.4,1.6-2,2.7-4.7c-0.2,0.9-0.2,2.2,0,4
		c0.4,0.2,0.9,0,1.3-0.7c1.1-2.7,1.8-5.1,2-7.4c0.2-1.6,0.2-2.6,0-3c-1.3,0.9-2.1,2.1-2.3,3.7c-0.2,0-0.7-0.3-1.3-1
		c1.6-2.2,2.7-6.2,3.4-12.1c0-1.1,0.4-2.6,1.2-4.4c0.8-1.8,1.3-2.9,1.5-3.4c-0.2-0.4-0.9-1.3-2-2.7c1.1-0.7,1.8-1.6,2-2.7
		c1.8-5.4,3.4-10.3,4.7-14.7l1.3-3l0.3-2.3c-0.5,0-1.2,0.1-2.2,0.3c-1,0.2-1.7,0.3-2.2,0.3l-7.4-0.7c-1.1-0.7-1.3-1.9-0.7-3.7
		c0.2-0.7,0.6-1.7,1-3c-0.5-0.9-0.8-1.3-1-1.3c-0.9,0-2.1,0.2-3.5,0.7c-1.5,0.5-2.4,0.6-2.8,0.3c-2.2-0.2-4.6-1-7-2.3
		c-2.9-1.6-4.2-3.3-4-5.4c-0.2,0.9,1.3-1.3,4.7-6.7c0.7,0,1.6-0.1,2.7-0.3c0.2-0.4-0.2-1.1-1.3-2l-2,1.7c0-0.2,0-0.7,0-1.3h0.7
		c0.4,0,0.7-0.2,0.7-0.7l-1.3-1.7c-0.7-1.1-0.9-2.5-0.7-4c1.6,0,2.3,0.1,2.3,0.3c-0.2-0.4,0.1-0.7,1-0.7c0.9,0,1.4-0.3,1.7-1
		c-0.7,0.2-2.2-0.2-4.7-1.3c-0.9,0.9-2.6,1.9-5,3c-1.8-1.3-2.2-1.9-1.3-1.7c1.1,0-1,0.3-6.4,1c-0.9-1.3-1.3-1.9-1.3-1.7
		c3.1-3.1,5.8-4.6,8-4.4c-0.7-0.2,0.8,0.1,4.4,1l2,2.3c0.4-0.4,1-0.9,1.7-1.3l0.7-5.7c-0.2-0.2-0.8-0.4-1.7-0.7h2
		c0.2-0.2,0.2-0.7,0-1.3c0.7-0.4,1-0.9,1-1.3c0-0.4-0.3-0.9-1-1.3c0.7-0.2,1.2-0.3,1.7-0.3c-0.7,0,0.4,0.8,3.4,2.3
		c0,0.2-0.5,0.7-1.3,1.3c0.7,1.1,1.4,1.7,2.3,1.7c-0.2,0.5-0.1,1.1,0.3,2c0.7-0.2,1.6-1,2.7-2.3l0.7-6l4,0.7c0.4,0,1,0.1,1.7,0.3
		l0.7,0.3c0.7-0.2,0.9-0.8,0.7-1.7l2.3-2.7c0.2-0.7,0.1-1-0.3-1c0.7-1.6,1-2.9,1-4c2.5-0.4,5.6-1.7,9.4-3.7
		c2.9-2.2,7.4-4.1,13.4-5.7c0-0.7-1.2-1.5-3.7-2.3c0.7,0.2,1.8,0.2,3.4,0c0.7-0.2,1.2-0.6,1.7-1c0.9,0,2.1,0.3,3.7,1
		c-1.1-0.4-2.8,0.1-5,1.7l0.7,0.7h1c1.6,0.2,3.1-0.3,4.7-1.7l0.3-1.3c1.1,1.6,1.8,2.3,2,2.3c0.9,0.2,2.2,0.2,4,0
		c1.8-0.2,3.2-0.3,4.2-0.2c1,0.1,2.5,0,4.4-0.3c1.9-0.3,3.3-0.5,4.2-0.5c0.4,0,1,0.2,1.7,0.7c0.7,0.5,1.2,0.7,1.7,0.7
		c0.7,0.2,1.8,0.2,3.4,0l3.7,0.7c1.1,0,2.8,0,5.2,0c2.3,0,4.1,0.1,5.2,0.3c2.9,0.2,8,1.4,15.4,3.5c7.4,2.1,11.6,3.9,12.7,5.2
		c-1.1-0.7-2.6-1.5-4.4-2.3c-0.9,0.7-1.3,1.2-1.3,1.7c4.7,1.6,7.4,2.7,8,3.3c2.9,1.6,5.8,4.2,8.7,8l5.7-2.3c1.3,0.2,3.2,1.6,5.7,4
		c5.6,5.8,8.8,13.5,9.7,23.1C187.8,78.3,188.3,82.5,188.3,83.1z M17.1,148.8l-0.3-0.7l-1,1.3l0.7,0.3L17.1,148.8z M21.8,147.8
		c-1.6,0.2-2.5,0.3-2.7,0.3c0.2,0.7,0.6,1.1,1,1.3c1.3,0,2-0.2,2-0.7C22.3,148.6,22.2,148.3,21.8,147.8z M27.8,13.1
		c-0.2,2-1.3,2.9-3.3,2.7c-1.6-0.2-2.8-0.9-3.7-2v-2.3l4.4-1.7C27.1,10,28,11.1,27.8,13.1z M29.5,46.6c-2.5,3.6-4.1,5.3-5,5
		c-2.5-0.2-3.6-1.3-3.4-3.4c0-0.7,0.7-1.5,2-2.3c1.3-0.9,2.3-1.2,3-1c0.4,0,1,0.3,1.7,0.8C28.5,46.4,29,46.6,29.5,46.6z M30.5,227.5
		h-1l-1,2.7h1L30.5,227.5z M31.2,144.8h-1.3v-0.7h1.3V144.8z M34.2,144.1c-0.2,0-0.6,0.1-1,0.2c-0.5,0.1-0.8,0.2-1,0.2
		c0.2,0.2,0.7,0.6,1.3,1C33.7,145.2,33.9,144.8,34.2,144.1z M33.2,62.4h-0.7v-1.7h0.7V62.4z M37.9,42.9l-1.7,1.3l-3-0.3
		c1.1-0.9,2.2-1.6,3.4-2C35.8,42.6,36.3,42.9,37.9,42.9z M36.9,197c-0.2-0.9-0.7,0.5-1.3,4c-0.5-1.6-0.9-2.1-1.3-1.7
		C34.8,198.7,35.7,197.9,36.9,197z M34.8,218.8h-0.7v-2h0.7V218.8z M37.9,144.5l-2-0.3v-0.7l2,0.3V144.5z M51.3,184
		c0,0.9-0.2,2.3-0.7,4.2c-0.5,1.9-0.8,3.3-1,4.2c-0.5-2.2-0.3-4.2,0.3-6c0-0.2-0.2-0.4-0.7-0.7c-1.6,8.3-2.2,13.1-2,14.4
		c0.4-0.2,0.7-0.6,0.7-1c0,0.9-0.6,2.1-1.7,3.7c0,0.7,0.3,1,1,1c-0.9,4.5-2.2,10.5-4,18.1c-0.2,1.8-0.7,4.7-1.3,8.7
		c0-0.2-0.2-0.8-0.7-1.7c0,1.1,0,2.3,0,3.7c0.2,1.8-0.1,3.8-1,6h-1.7c0.4-1.6,0.2-2.8-0.7-3.7c0.4,0,0.8,0.2,1,0.7
		c0.2-0.4,0.4-1.6,0.7-3.4l-1.7,1l2-4c0-1.1-0.3-2.5-1-4c0-0.4,0.2-1,0.7-1.7c0.2-0.9,0.3-2.3,0.3-4.4c0.2,0,0.1-0.2-0.3-0.7
		c-0.2,0.7-0.7,1.5-1.3,2.3l1.7-15.4c0.2,0,0.4-0.2,0.7-0.7c0-1.1,0.1-3,0.3-5.7c0.4-0.4,1-1.1,1.7-2c0.2-0.9,0-1.3-0.7-1.3l1-9
		c1.1-0.2,2-1.1,2.7-2.7C48.9,184.4,50.8,184.4,51.3,184z M39.5,242.6l0.3-3.3h-1l-0.3,3.3H39.5z M39.9,244.6l-0.7-0.3l-0.7,1.3
		l0.3,0.3L39.9,244.6z M44.9,67.7l0.3-2.3c-0.9,0.5-2.2,0.9-4,1.3v2c1.1,0.7,2,1.1,2.7,1.3C44.3,69.6,44.7,68.9,44.9,67.7z
		 M43.2,220.2h-1l-1,2l1,0.3L43.2,220.2z M43.2,38.6l-0.3,2l-1-0.3l0.7-1.7H43.2z M43.2,217.8h-1l0.3-1.3h1L43.2,217.8z M55.6,33.9
		c-1.3,0.9-3.6,2.3-6.7,4.4v2c0.7-0.2,1.2-0.3,1.7-0.3c0.4,0,0.7,0.2,0.7,0.7c-1.1,0-2.1-0.2-3-0.7c-0.5,0.5-1.1,1.6-2,3.4
		c-2-0.9-2.8-2.1-2.3-3.7l0.3-4.4c0,0.5,0.3,0.8,1,1c0.7,0,2.2-0.7,4.7-2c-0.2,0-0.5,0.2-0.7,0.7c-0.2,0.5,0,0.7,0.7,0.7
		c0.7-0.2,2.1-1.1,4.4-2.7C54.5,32.9,54.9,33.2,55.6,33.9z M46.6,72.1c0.4-0.7,0.7-1.3,0.7-2c0.2-0.9-0.1-1.9-1-3
		c-0.9,0-1.3,0.8-1.3,2.3c-0.2,0.5-0.1,1,0.3,1.7c0.4,0.7,0.7,1.1,0.7,1.3c0-1.8,0.2-3.1,0.7-4C47,69.3,47,70.5,46.6,72.1z M46.9,62
		l0.3-4.4c-1.3,0.9-2.1,1.9-2.3,3v1.7c0.2,0,0.6-0.1,1-0.3C46.3,61.8,46.7,61.8,46.9,62z M46.2,179l-0.7-0.7l-0.3,0.3l0.3,0.7
		L46.2,179z M62.6,10.5c0,1.6-1.3,2.7-4,3.5c-2.7,0.8-4.9,1.1-6.7,0.8c-4.5-0.4-6.5-3.1-6-8c0.4-3.6,1.9-5.1,4.4-4.7
		c0.4,0,0.7,0.1,0.7,0.3h1c0.2,0,0.8-0.4,1.8-1.3c1-0.9,2.1-1.2,3.2-1c2.2,0.2,3.8,1.5,4.7,3.7c-0.2,0.5-0.3,1.1-0.3,2
		C62.2,9.6,62.6,11.1,62.6,10.5z M49.2,184v-1l-2.7-0.3v1L49.2,184z M48.2,135.1l0.3-1.3h-1l-0.3,1.3H48.2z M49.6,137.8l-1-0.3
		l0.3-1.3l1,0.3L49.6,137.8z M49.2,194h-0.7v-2h0.7V194z M53.3,131.1v-3c-1.6,2-2.2,2.9-2,2.7L53.3,131.1z M54.3,41.9
		c-0.5,0.2-0.7,0.8-0.7,1.7c-1.3-1.6-2.1-2.2-2.3-2L54.3,41.9z M62.6,121.7c-0.2,0-0.8,0.3-1.7,1l0.7-6.4c-0.5,1.6-1.2,3.4-2.3,5.4
		c0-0.2,0-0.8,0-1.7c-0.7,3.1-2,8.8-4,17.1c-0.5,1.1-1.2,3.6-2.3,7.4c0.2-0.2,0.8-0.4,1.7-0.7v-1c-0.2-0.4-0.3-0.8-0.3-1l2.7,0.3
		l1.3-1l0.3-3c-0.2,0-0.6,0.1-1,0.3l-0.7,0.7c-0.7-0.7-0.9-1.2-0.7-1.7l-0.3,0.3c0,0.2,0.2,0.3,0.7,0.3c0.4,0,0.6-0.2,0.5-0.5
		c-0.1-0.3,0.1-0.5,0.5-0.5l1.7,0.7l0.7-8.4C60.2,126.9,61.1,124.4,62.6,121.7z M55.3,121.7l0.3-0.7c-1.1-0.4-1.7-0.6-1.7-0.3
		C53.9,121.3,54.4,121.7,55.3,121.7z M56.3,117.7l-1.7,1.3v-0.7l1.3-1.3L56.3,117.7z M56.9,9.8l0.3-1l-2.3-1v1L56.9,9.8z M60,280.5
		c-0.7-1.8-1.5-3.1-2.3-4l0.3-3c0.4,0.7,1.2,1,2.3,1c-0.2,1.8-0.3,3.2-0.3,4.4V280.5z M60,104.3c0-1.1-0.2-1.7-0.7-1.7
		c-0.2,0-0.7,0.2-1.3,0.7C58.6,103.9,59.3,104.3,60,104.3z M61.3,138.4l-0.7,2.3H60l0.3-2.3H61.3z M66.7,264.7
		c0.4,0,0.7,0.2,0.7,0.7c-0.2,0.7-0.6,1.3-1,2c0.2-0.9,0.2-1.3,0-1.3c-0.2,0-0.6,0.1-1,0.3C65.5,265.3,66,264.7,66.7,264.7z
		 M78.7,197c-0.5-0.7-1-1-1.7-1l0.7-6.7c0.2-2.5,0.3-4.4,0.3-5.7c0.4-1.1,0.6-1.1,0.3,0c-0.9,0.9-1.6,2.9-2,6L73,206.1
		c-1.1,2.7-1.7,4.7-1.7,6c0.2,0,0.4,0.1,0.7,0.3c-0.5,0.7-2,6.1-4.7,16.4c-0.2,0.5-0.5,0.7-0.7,0.7c0,0.5,0.2,1.3,0.7,2.7
		c0.7-2,1.9-5,3.7-9l-1,0.3l-0.7-0.7c1.6-0.4,2.5-1.2,2.7-2.3c0-0.4-0.2-1-0.7-1.7c-0.5,0,0.3-0.8,2.3-2.3c-0.5,0-1-0.3-1.7-1
		c0.9-0.7,1.3-1.2,1.3-1.7c-0.2,0-0.6-0.1-1-0.3c1.6-0.2,2.3-1.2,2.3-3c-0.2,0.2-0.6,0.2-1,0c-0.2,0-0.3-0.1-0.3-0.3
		c0-0.4,0.2-1.1,0.7-2c0.4-0.9,0.7-1.6,0.7-2H77l1-7.4l-2,1.3c0-0.7,0.4-1.2,1.3-1.7c-1.1,0-1.7-0.3-1.7-1
		C76.4,196.9,77.4,196.8,78.7,197z M75.7,22.2l-2,0.3v-0.7l1.7-0.3L75.7,22.2z M75.7,204.1l-0.7-0.3l-0.7,1l0.7,0.7L75.7,204.1z
		 M77.4,201.4l-1,1.3l-0.3-0.3l0.7-1.3L77.4,201.4z M79.1,182l-0.7-0.3l-0.7,1.7l0.3,0.3L79.1,182z M84.1,183.6l1-10l-2.3-0.3
		l-1.3,1l-2.3-0.3v2.3c1.1-0.2,1.9-0.8,2.3-1.7c0.4,1.1,0.6,2,0.3,2.7c0,0.5-0.2,0.8-0.7,1c0,3.4-0.8,6.8-2.3,10.4
		c0,1.3,0.2,3,0.7,5C79.8,191.2,81.4,187.9,84.1,183.6z M140,145.8c-0.9,1.3-3.7,3.5-8.5,6.4c-4.8,2.9-7.7,5.5-8.5,7.7
		c-0.9-0.2-1.6-0.2-2,0c-0.2,1.1-1.3,2-3.4,2.7l-5,1.7l-18.8,5c0-0.7-0.5-1.5-1.3-2.3c-1.6,1.6-2.9,2.3-4,2.3c-2.2,0-3.6,0.1-4,0.3
		c0.7,1.1,1.1,1.6,1.3,1.3l-1.7,0.3l-2-0.3v-3.7c0.4-0.2,8.3-2.2,23.5-6c0.4-0.2,0.4-0.7,0-1.3c8.5-1.3,17.5-5,27.1-11.1
		c-0.2-0.4-0.1-0.9,0.3-1.3c0.2,0,0.7-0.2,1.3-0.7c-0.9-0.4-2-0.8-3.4-1c-0.5,0.2-1.5,0.6-3,1c0.2,0.2,0.9,0.5,2,0.7
		c-0.2,1.3-0.9,1.9-2,1.7c-0.5,0-0.6-0.1-0.5-0.3c0.1-0.2-0.1-0.3-0.5-0.3c-0.9,0-4.4,1-10.4,2.8c-6,1.9-9.9,2.7-11.7,2.5
		c2-0.4,3.9-0.9,5.7-1.3c1.6-1.3,3.5-2.3,5.7-3c1.1-0.2,2.5-0.4,4-0.7c2.9-1.6,7.7-4,14.4-7.4c0.7,0,1.1,0.7,1.3,2
		c1.1-0.7,2.2-0.7,3.4,0l-2,1.3l-4-0.3l-1,1c0.7,0,1.6-0.1,2.7-0.3L140,145.8z M88.1,158.9l-0.3-0.7l-2,1l0.3,0.7L88.1,158.9z
		 M150.4,86.5c-0.5-1.1-0.9-3.2-1.3-6.4c-0.5-1.8-3.1-5.7-8-11.7c-1.1,0-3.1-0.9-6-2.7c0.2,0.5-0.5,0.9-2,1.3
		c0.2-0.2-0.3-0.4-1.7-0.7c-0.2-0.2-0.5,0.3-0.7,1.7c0.2,0.5,0.6,0.7,1,0.7c1.3-0.2,3.2,1,5.7,3.7c-1.1-0.2-3.2-0.8-6.4-1.7
		c-1.3-1.6-2.3-2.3-3-2.3c-0.2,0-0.5,0.1-0.7,0.3c0.9,0.5,1.7,1.2,2.3,2.3c-1.3,0-2.8-0.4-4.4-1.3c-1.6-0.9-2.6-1.3-3-1.3
		c-0.5,0-1.3,0.1-2.7,0.3l-2.7,1c-0.7,0.2-1.5,0.7-2.3,1.3c-1.6-0.2-3.7-0.3-6.4-0.3c-0.5,0.9-2.2,2.2-5.4,4l-1,7.4
		c-0.7,3.1-2,7.6-4,13.4c0.2,0.2,0.6,0.2,1,0c0.7-0.2,1.1-0.2,1.3,0c-0.2,0.7-0.8,2-1.7,4c-0.2-0.4-0.3-0.9-0.3-1.3
		c0,0.2-0.3,0.7-0.8,1.3c-0.6,0.7-0.8,1.2-0.8,1.7l-0.3,1l0.3,0.7h0.3c0.2-0.2,0.6-0.3,1-0.3c0.2,0,0.3,0.3,0.3,1
		c-1.8,0.5-2.8,2-3,4.7c0-0.2,0.1-0.3,0.3-0.3v0.3c-0.9,3.1-1.3,4.1-1.3,3c0.2,0,0.6,0.1,1,0.3l-1.3,0.7c-2.2,10.7-3.6,18.5-4,23.5
		c0.2,0,0.3,0.1,0.3,0.3c-0.5,0.2-0.5,0.5,0,0.7c0.7,0.5,1,0.8,1,1l-1.3,1l3.4,0.3c8.3-3.8,20.4-9.8,36.5-18.1
		c0.4-0.4,1.3-1.4,2.7-3c-0.9,0.2-2.1,0.7-3.7,1.3l-10.4,5c-0.7-0.2-0.9-0.3-0.7-0.3l1.3-1c0.2,0.2,0.8,0.5,1.7,0.7
		c0-0.2-0.3-0.8-1-1.7c0.4-0.2,1-0.2,1.7,0c-0.9-1.3-1.3-1.9-1.3-1.7c3.8-1.6,9.7-5.6,17.8-12.1c3.1-3.1,6.4-8,9.7-14.7
		C147.8,91.7,148.8,89.4,150.4,86.5z M113.6,161.9l-0.3-0.3c-0.5-0.2-0.9-0.4-1.3-0.7c2.9,0.5-2.7,2-16.8,4.7
		c-1.1,0.7-1.7,1.2-1.7,1.7c1.1-0.2,2.5-0.6,4-1c-0.7,0.2-0.2,0.3,1.3,0.3c-0.7,0-0.2-0.3,1.3-1
		C102.8,165.1,107.3,163.9,113.6,161.9z M95.1,157.9l-0.7,0.3l-0.7-0.7l0.3-0.7L95.1,157.9z M104.9,154.5c-4.2,2-7.6,2.8-10.1,2.3
		c4.7-1.8,7.4-2.7,8-2.7L104.9,154.5z M99.2,100.2l-1-0.3l-0.3,1.3l0.3,0.3L99.2,100.2z M116.9,125.7l-3.7-0.3
		c-0.9,1.1-3.5,2.7-7.7,4.7c-1.8,2.2-3.8,3.2-6,3l2,0.3l1-1C107.4,130.4,112.2,128.2,116.9,125.7z M102.8,88.5
		c-0.5,2-1.3,3.9-2.7,5.7c0-0.7,0.2-1.7,0.7-3.2c0.4-1.4,0.8-2.5,1-3.2L102.8,88.5z M121.6,157.9l-2.3,1v-0.7l2.3-1.3V157.9z
		 M130.6,65.4c-1.8-0.2-3.2-0.6-4.4-1l3.4,2C130.3,66.6,130.6,66.3,130.6,65.4z M142.7,142.1c0.4,0.2-0.6,0.2-3,0
		c-0.5,0-0.9-0.4-1.3-1.3l-1,1c-0.5,0-1.1-0.6-2-1.7l3.4-1.3c0.4,0.2,1.1,0.4,2,0.7c0.9,0.2,1.6,0.5,2,0.7V142.1z M141.7,73.4
		l-1.7-0.7v0.7l1.3,0.7L141.7,73.4z M175.2,97.6c-1.1,3.3-2.8,7.9-5,13.7c0,0.9-0.8,2.2-2.3,4l-2.3,2.7c-0.2,0.7-0.9,1.8-2,3.3
		l0.3,1.7c-0.2,1.8-1.3,3.6-3.4,5.4c-0.2,0-0.7-0.3-1.3-1l-1.3-0.3c-0.2,0.5-0.7,1-1.3,1.7c0,0.2,0.2,0.7,0.7,1.3
		c-0.2,0.5-1.1,1.5-2.7,3v-0.7c-0.2-0.2-0.6-0.3-1-0.3c-1.1-0.2-2.2,0.1-3.3,1c0.7,0.7,1.7,1.1,3,1.3c-2.5,2.9-5.7,5.5-9.7,7.7v-2
		c0.7-0.2,1.6-0.6,2.7-1l-3-0.3c5.4-4.7,10.6-10.2,15.7-16.4c0.2-0.7,0.9-1.9,2-3.7l3.4-3.7l0.3-2.3c1.8-2.7,4.4-6.8,7.7-12.4
		c0-1.3,0.1-2.8,0.3-4.4c0.4-1.1,1.2-1.6,2.3-1.3L175.2,97.6z"/>
	<path class="st0" d="M323.6,164.2c0,4-1.7,9.9-5,17.8c-1.3,3.8-3.2,9.8-5.7,18.1c-2.7,2.9-6.5,7.8-11.4,14.7l1.7-3.4
		c1.3-2.5,1.8-3.9,1.3-4.4c-1.8,2.5-4.2,6.5-7.4,12.1c-1.3,1.1-3.4,3.2-6,6.4c-1.3,2.5-3.2,6-5.7,10.7c-5.8,8.3-12.3,15-19.4,20.1
		c-12.3,9.2-20.4,13.7-24.5,13.7c-0.7,0-1.7-0.2-3-0.7c-1.3-0.4-2.2-0.7-2.7-0.7c-1.8,0-4.3,0.4-7.5,1.2c-3.2,0.8-5.8,1.2-7.5,1.2
		c-6.7,0-13.9-3.6-21.4-10.7l-6.7-1.3c-0.2,0.7-0.3,1.6-0.3,2.7c0,1.1,0.1,2.5,0.3,4c-2.2-2.9-5.3-6.7-9-11.4
		c-0.2-1.1-0.8-3.1-1.7-6c-0.7-0.4-1.3-0.9-2-1.3c-0.5-2.9-1.1-7.4-2-13.4c1.1-1.3,1.7-2.3,1.7-3c-2.2-5.1-3.7-9.5-4.4-13.1
		c0.7-0.7,0.7-6.7,0-18.1c2-16.3,6.1-32.4,12.4-48.2c2.5-6.9,7.3-14.2,14.4-21.8c7.6-8.9,14.4-14.1,20.4-15.4
		c0.9,0,5.1-1.8,12.7-5.4c-15.4,6.3-27.7,16-36.9,29.1c-0.2,0.2,0,0.7,0.7,1.3l1.7-1.3c-2.9,3.1-5.3,6.9-7,11.4l1.3,0.7
		c6.9-9.6,18.2-19.8,33.8-30.5c-0.7,0-2.6,0.6-5.7,1.7c14.3-8.5,25.3-12.6,33.2-12.4c-0.2,0-0.7,0.3-1.3,1c0.7,0.4,1.4,0.7,2.3,0.7
		c1.1,0,2.8-0.2,5-0.7c2.2-0.4,3.9-0.7,5-0.7c0.7,0,2.2,0.8,4.5,2.3c2.3,1.6,3.7,2.3,4.2,2.3c0.9,0,1.3-0.2,1.2-0.5
		c-0.1-0.3,0.1-0.5,0.5-0.5c0.7,0.2,1.6,1,2.8,2.2c1.2,1.2,4.5,4.9,9.9,10.9c0.9,2,3.1,4.7,6.7,8l1.3-1.3c-1.6-0.7-2.2-1.6-1.8-2.7
		c0.3-1.1,0.1-2-0.8-2.7c3.6,0,6.2,0.8,8,2.3c1.3-1.6,2-2.6,2-3c0.9,2.5,2.7,5,5.4,7.7c1.6,1.8,3.9,7.5,7,17.1
		c0,0.9,0.1,2.3,0.3,4.4c0.4,0.9,1.4,1.8,3,2.7C322.9,160.2,323.6,162.2,323.6,164.2z M209.7,128.7l-4.4,4.7l-0.3-1l4-4L209.7,128.7
		z M215.1,125.4l-4.4,3.4l-0.3-1.3l4-3L215.1,125.4z M268.3,157.5c-2.2-3.4-3.6-5.9-4-7.7c-2.9,2-7.6,5.8-14.1,11.4
		c0.2-1.3,1.1-3,2.7-5c-10.3,12.7-17.8,26.9-22.4,42.5c-0.9-1.3-1.5-2-1.7-2c-1.6,0-3.1,2.7-4.5,8c-1.5,5.4-2.2,9.2-2.2,11.4
		c0,4.5,1,10.3,3,17.4c8.9-2.5,17.5-9,25.8-19.8c8.3-10.7,12.3-20.4,12.1-29.1c0.9,0.5,1.6-0.2,2-2l1-2.3c-1.8-0.7-3.7-1.4-5.7-2.3
		c0.2-1.1,0.3-2,0.3-2.7c0-2.2-3.6-4.2-10.7-6l8.4-0.3c1.1,0.5,2.7,1.5,4.7,3c0.2-0.7,0.6-1.4,1-2.3c-1.3,0-2.1-0.1-2.3-0.3
		c1.1-1.1,1.6-2,1.3-2.7c-0.9-0.7-2.1-1.6-3.7-2.7c3.4-1.1,5.6-2.6,6.7-4.4c-0.7-0.9-1.6-1.9-2.7-3c0.7,0,1.6,0.2,2.7,0.5
		C267.1,157.3,267.9,157.5,268.3,157.5z M238.5,108.6h-2v-1.3h2V108.6z M252.9,108.9c-2.5,0.7-7.5,2.3-15.1,5h3
		C242.2,114.2,246.2,112.5,252.9,108.9z M242.9,106.9h-2v-1.3h2V106.9z M257.6,179h-1.7v-1.3h1.7V179z M317.2,124h-1.3v-3h1.3V124z"
		/>
	<path class="st0" d="M317.6,86.8c3.1-1.3,5.6-2.3,7.4-3c0.2,2.7,0.3,4.5,0.3,5.4c-4.5,1.8-6.4,2.7-5.7,2.7c-0.2,0-0.8-0.3-1.7-1
		L317.6,86.8z M326.3,168.6l0.3-1.3l-0.3-3.3c2.5-5.8,4.7-8.8,6.7-9c1.6,0,3,1,4.4,3c0.4,1.3,1.1,2.6,2,3.7c0.4-0.2,1.1-0.3,2-0.3
		c2.2,0,3.5,1.7,3.7,5c0.2,6.5-1.6,9.7-5.4,9.7c-0.2,0-0.3-0.1-0.3-0.3l-0.7,0.3c-1.1,0-2.6,0.7-4.4,2c-5.8-4.2-8.7-6.8-8.7-7.7
		C325.6,169.8,325.8,169.2,326.3,168.6z M333.3,240.6l-3.7,12.4l0.7,0.3l4-12.7H333.3z M461.3,132.4c-0.7-2.7-0.7-4.2,0-4.7
		c-1.8-6.5-3.1-11.4-4-14.7c-3.1-2.5-5.1-3.8-6-4c-0.7,1.6-1,2.8-1,3.7h-0.7c-1.8-2.9-3.2-4.2-4.4-4l-4,2.3c-0.4-0.7-0.8-1.1-1-1.3
		c-4.5-2.7-7.4-3.9-8.7-3.7c-1.3,0-5.4,3.2-12.1,9.7c-1.1,0-2-0.4-2.7-1.3c0,1.1-0.2,1.9-0.7,2.3l-2,0.3c-0.5,0-0.6-0.2-0.5-0.5
		c0.1-0.3-0.1-0.5-0.5-0.5c-1.1,0-2.2,1.2-3.4,3.7v3c0,1.1-0.2,2-0.7,2.7c2-2.9,3.5-5,4.4-6.4l0.3,0.7c-8.3,14.5-15,25.6-20.1,33.2
		c-0.2-2.9-0.2-6.9,0-12.1c-0.2-0.2-0.3-0.4-0.3-0.7c0.7-6,0.7-11.1,0-15.1c-0.2,0-0.4,0.1-0.5,0.3c-0.1,0.2-0.4,0.3-0.8,0.3
		c-0.9,0-1.2-1.3-1-4l0.7-4c-4.9-5.4-8.6-7.4-11.1-6c4.5,2.2,6.6,4,6.4,5.4c1.8,0.5,2.8,1.9,3,4.4c0,0.9-0.1,1.6-0.3,2
		c-2.2-4.5-4.6-7-7-7.7c0,0.2,0.1,0.6,0.3,1c0.2,0.5,0.3,0.8,0.3,1l1-0.3c1.1,0,2.3,1.1,3.7,3.4l-2.7,1.3c-4.7-5.1-7.5-7.8-8.4-8
		c0.4-0.7,0.7-1.5,0.7-2.3c-3.8,2.5-7.4,4-10.7,4.7c-2.5,1.1-4.2,1.9-5.4,2.3c-0.2,0.9-0.3,1.7-0.3,2.3c-0.9,1.8-2.1,3.1-3.7,4
		c-2-0.7-3.6-1.1-4.7-1.3c0-0.2-0.3-0.1-1,0.3c0.4,0,0.7,0.2,0.7,0.7c-1.1,3.1-1.8,4.9-2,5.4c0.2-0.2,0.7-0.4,1.5-0.7
		c0.8-0.2,1.3-0.4,1.5-0.7c0.2,0.2,0.2,0.5,0,0.7c-2.5,3.1-3.7,5-3.7,5.7c-1.8,0.9-3.1,1.8-4,2.7l1.3-1c0.7,0.7,1.1,1.2,1.3,1.7
		c-0.2,0.5-0.2,1,0,1.7c0.9-2.5,1.6-3.9,2-4.4c0.4,0.9,0.3,1.7-0.3,2.3c1.1-0.2,1.6,0.8,1.3,3c1.6,6.9,2.5,10.8,2.7,11.7
		c0.2,1.3-0.2,4.5-1.3,9.4c0.2-0.2,0.7,0.2,1.3,1.3c-1.8,9.8-3,16.4-3.7,19.8c-2.9,15.6-5,25.5-6.4,29.5c-2.5,6.9-3.7,12.4-3.7,16.4
		c0,0.2-0.2,0.8-0.5,1.7c-0.3,0.9-0.5,1.6-0.5,2c0,0.9,0.2,1.3,0.7,1.3l9.4-29.1l-9,34.8c1.6-5.4,2.8-9.2,3.7-11.4
		c0,0.5-1.2,5.3-3.7,14.4c0-0.4,0.4-0.8,1.3-1l-4,10.1c-0.2-1.3,0.1-3.1,0.8-5.4c0.8-2.2,1.1-3.6,0.8-4c-1.6,5.6-2.5,8.8-2.7,9.7
		c0-0.2,0.1-0.4,0.3-0.7c0.2,1.3-1.1,6.8-4,16.4l-0.7-1c0.2,3.6-0.1,5.9-1,7c1.1-1.8,2-3.1,2.7-4c0.2,0.7,0.3,1.1,0.3,1.3
		c-0.2-1.8,0.4-4.1,2-7l0.7,1c0-0.2,0.1-0.6,0.3-1c0.2,1.3,0.1,2.9-0.5,4.7c-0.6,1.8-0.8,3-0.8,3.7c0.9-2.5,1.6-4.1,2-5
		c0.7,0.7,1,1.1,1,1.3c-1.1,2.9-1.7,5-1.7,6.4c2.7-5.4,4.1-8.3,4.4-8.7c13.6-36,20.4-54,20.4-54.3c4.2-13.6,7.8-26.3,10.7-38.2
		c1.6,1.6,2.3,2.1,2.3,1.7c-7.8,29.5-11.8,44.6-12.1,45.2c-5.4,20.1-11.2,36.2-17.4,48.2c0.7-0.4,1-0.3,1,0.3v2
		c0.9-2.9,2.1-5.4,3.7-7.4c0.4,0.2,0.6,0.4,0.3,0.7c-1.6,4.7-2.9,7.6-4,8.7c-3.1,6.3-5.1,11.2-6,14.7c1.3-2.7,2.3-4.6,3-5.7
		c0.2,0,0.2,0.2,0,0.7c0,0.2,0.2,0.3,0.7,0.3c0.4-0.2,2.5-4.2,6-12.1c5.6-12.1,8.5-18.3,8.7-18.8c0.2,0.2,0.3,0.7,0.3,1.3
		c0.2,1.6-2.3,8.2-7.7,19.8c1.3-1.8,2.6-3.3,3.7-4.7c0.2-0.7,0.4-0.9,0.7-0.7c0.7-0.4,1.2-0.4,1.7,0c-2,5.1-3.4,9.2-4,12.1
		c2.5-4.2,5.1-9.9,8-17.1l-1,1c0-0.7,0.7-2.5,2-5.4c0.4,0.4,0.7,0.8,0.7,1c0.4-3.6,1-6.1,1.7-7.7c0.7,0.7,0.8,1.2,0.3,1.7
		c5.1-9.8,7.7-17.2,7.7-22.1c2.2-3.6,3.4-6.3,3.4-8c0-0.7-0.3-1.2-1-1.7c0.9-0.7,1.4-1.1,1.7-1.3c0.2-2,0.7-3.2,1.3-3.7l-0.3-2.3
		c-0.5-0.9-0.3-1.9,0.3-3l1,0.7c0.9-2.5,1.6-4.2,2-5.4c-0.9,1.1-1.7,1.8-2.3,2c0-2.7,0.7-4.4,2-5c0.4,0.7,0.7,1.3,0.7,2
		c4.2-15.4,7.5-23.9,9.7-25.5l1,1c0.4-0.4,1.2-0.7,2.3-0.7c0.2-1.8,0.8-3.6,1.7-5.4c0.4,0.2,0.6,0.5,0.3,0.7c-0.5,2.7-1.1,5-2,7
		c-0.5-0.4-0.6-0.7-0.3-0.7c0.7,0.7,1,1.3,1,2c0,0.7-0.4,2-1.2,3.9c-0.8,1.9-1,3.3-0.5,4.2c2.2-4.5,3.6-6.9,4-7.4l0.7,0.7
		c-0.2,2.7-0.3,4.7-0.3,6c2-4.2,3.6-6.9,4.7-8l0.7,0.7c-0.4,1.3-0.6,2.9-0.3,4.7c1.6-2,2.7-3.7,3.4-5c1.1,1.6,2.2,2.3,3.4,2.3
		c0.9-1.6,1.4-2.8,1.7-3.7c0.4,0.5,0.6,1.9,0.3,4.4c3.4-6.5,5.4-10.3,6-11.4c0.2,0.2,0.4,0.8,0.7,1.7c2.9-5.1,4.6-8.1,5-9
		c0.2,0.5,0.3,1.7,0.3,3.7l1-1c0.4,0.5,0.9,0.7,1.3,0.7c0.4,0,2.6-3.1,6.4-9.4c3.8-6.2,5.9-9.4,6.4-9.4h1.3h0.7l0.7-2.7
		c0-1.8,0.6-2.7,1.7-2.7c0.7,0,2,0.4,4,1.2c2,0.8,3.4,1.2,4,1.2c0.4,0,1-0.4,1.7-1.3c-0.2-1.3-0.1-2.1,0.3-2.3c1.3,1.8,2,3.2,2,4.4
		c0.2-2.7,0.6-4.7,1-6c0.7,1.6,1.1,2.8,1.3,3.7l-1,1.3h2.7c-0.2-4.7-0.1-7.6,0.3-8.7c1.3-2.5,2.1-3.9,2.3-4.4
		C461.6,134.4,461.3,132.8,461.3,132.4z M332.3,278.4l-0.7,2l0.7,0.3l0.7-2.3H332.3z M335.7,273.1l-0.7,1.7h0.7l0.7-1.3L335.7,273.1
		z M339.3,267.1l-0.7-0.3l3.7-12.4h0.7L339.3,267.1z M340.7,291.2l-1.3,2.7l1,0.3l1-2.7L340.7,291.2z M341.4,117c2.5-2,4.5-3,6-3
		c2-0.2,3.1,1.1,3.4,4c0.2,4-0.9,6.1-3.4,6.4c0.9,0-1.1-1.2-6-3.7V117z M343.7,288.8l-2.3,5.4h1.3l2-5.4H343.7z M343.4,253v-1.3h1
		v1.3H343.4z M345,228.5h-1l0.7-3.4h1L345,228.5z M346,225.2h-0.7l1.3-8.4h1L346,225.2z M347.4,281.5l-1.3,1.3l0.7,0.7l1.3-1.3
		L347.4,281.5z M347.7,131.7h-1v1.7h1V131.7z M349.7,123.7c-0.9,0.9-1.7,2.2-2.3,4c0.4-1.6,1.2-2.6,2.3-3l1.3,0.7
		C350.4,124.5,350,123.9,349.7,123.7z M351.1,144.1l-1.3,2l1,0.7l1-2.3L351.1,144.1z M351.4,170.6h-1v1.7h1V170.6z M351.1,136.4
		v-1.7h1v1.7H351.1z M352.7,164.2h-1l0.3,1.7h1L352.7,164.2z M354.1,132.1l-0.7-0.3l0.7-1.3l0.7,0.3L354.1,132.1z M353.8,128.7
		c0.7-2,1.6-3.2,2.7-3.7l0.3,3C356.1,127.6,355.1,127.8,353.8,128.7z M354.4,135.4l-0.7-0.3l0.7-1.3h0.3L354.4,135.4z M355.1,216.5
		l-0.7-0.3l0.7-1.7l1,0.3L355.1,216.5z M361.1,232.9l-0.7-0.3l0.7-3.4h1L361.1,232.9z M365.1,123.3c-0.2-2.2,1.7-3.5,5.7-3.7
		c1.6,0,2.9,0.8,4,2.3L365.1,123.3z M366.1,250.3V249l1-0.3v1.3L366.1,250.3z M367.8,248l-0.7-0.3l1.7-5h0.7L367.8,248z
		 M370.5,237.9v-1.3h1v1.3H370.5z M371.2,236.2l-0.3-1.3h1l0.3,1.3H371.2z M371.8,233.6v-2l1-0.3v2L371.8,233.6z M372.8,230.5
		l-0.3-2h1l0.3,2H372.8z M373.5,111.6c0-0.7,0.7-1.4,2.2-2.3c1.4-0.9,2.5-1.3,3.2-1.3c0.4,0,0.8,0.2,1.2,0.5
		c0.3,0.3,0.6,0.5,0.8,0.5c0.9-1.6,2.6-2.3,5-2.3c5.4-0.2,8.1,1.8,8.4,6c0.2,0.9,0,3.1-0.7,6.7L373.5,111.6z M374.5,170.9h-1
		l0.3-4.4h1L374.5,170.9z M373.9,226.9v-1.7h0.7v1.7H373.9z M375.5,171.3h-1l0.7-4.7h1L375.5,171.3z M381.6,204.1l-0.7-0.3l0.3-1.3
		l1,0.3L381.6,204.1z M382.2,201.7h-0.7l0.7-3h1L382.2,201.7z M383.2,195.7l-0.7-0.3l1-2.3h1L383.2,195.7z M384.9,192.7l-0.7,0.3v-3
		l1-0.3L384.9,192.7z M385.6,145.1l-1-0.3l0.7-1.7h1L385.6,145.1z M385.6,150.5v-2h1v2H385.6z M386.9,147.1h-0.7v-3.7h1L386.9,147.1
		z M390.6,183l-0.7,3l0.7,0.3l1-3L390.6,183z M395.6,138.4h-1l0.3,1.3h1L395.6,138.4z M407.7,126.7l-0.7,1.7l0.7,0.3l0.7-2H407.7z
		 M425.1,172.6l-2,1.7l0.7,0.7l2-2L425.1,172.6z M430.1,165.9l-0.7-0.3l0.7-1.3h0.7L430.1,165.9z M432.8,101.6
		c-0.7,0.9-1.5,1.3-2.3,1.3c2.9-0.2,4.4,0.6,4.4,2.3C434.8,103.2,434.2,102,432.8,101.6z M450.9,154.5c0-0.7-0.2-1.1-0.7-1.3
		c0,1.8-0.2,2.8-0.7,3h1C450.8,155.5,450.9,155,450.9,154.5z M452.9,137.4l-0.7-3.4h1l0.7,3L452.9,137.4z M456.3,139.1
		c0.9,3.3,1.4,5.3,1.7,5.7c-2-3.4-3.1-5.2-3.3-5.7c0-0.4,0.1-1,0.3-1.7c0.2-0.7,0.3-1.1,0.3-1.3c0.9,0.7,1.6,1,2,1
		C457.3,137.3,456.9,138,456.3,139.1z M462,146.8h-0.7v2h0.7V146.8z"/>
	<path class="st0" d="M463.6,228.2c-0.5,2.5-1.5,3.6-3,3.4c-0.5,0-2.1-1.6-5-4.7c0.2-1.3-0.7-2.9-2.7-4.7c-0.2-1.3-0.3-2.1-0.3-2.3
		c0.7,0,1.3,0.5,2,1.3l2.7-2c1.1-0.9,1.9-1.3,2.3-1.3C462.1,218.3,463.4,221.7,463.6,228.2z M459.3,61.4c0,0.5-0.2,1-0.5,1.7
		c-0.3,0.7-0.5,1.1-0.5,1.3c-1.1-0.2-2.2-0.2-3.4,0c-0.9-0.9-1.2-1.5-1-1.7c0-0.4,0.3-1.3,1-2.5c0.7-1.2,1-2.1,1-2.5
		c0.9,0,2.2,0.2,4,0.7L459.3,61.4z M629.8,118l-6.4,3c-0.2,0.9,0.6,1.9,2.3,3c0,0.5-0.5,1.1-1.3,2c-4,0.5-9.8,0.8-17.4,1
		c-1.3,0-2.6,0.5-3.7,1.3c1.8,0.5,3.7,0.9,5.7,1.3c2,0.2,4,0.3,6,0.3c-2.5,0.5-6.1,1-11.1,1.7c-2.2,0.9-5.5,1.8-9.7,2.7
		c0.2,0.5,0.6,0.6,1,0.3c3.8-0.4,5.9-0.7,6.4-0.7c1.6,0,6.9-0.2,16.1-0.7l1.3,0.7l-2.3,1.7l-42.2,4.7c-15.4,1.6-29.4,2.6-41.9,3
		l-0.7,0.7c-0.2,0.2-2.6,6.8-7,19.8c-2.9,8.5-4.9,16-6,22.4c-3.3,21.9-1.9,39.4,4.4,52.6c11.6-6.9,17.1-10.4,16.4-10.4
		c0.9,0,2.3,1.2,4.4,3.5c2,2.3,3.5,3.6,4.4,3.9c0.4,0,0.7-0.1,0.7-0.3c0-0.2,0.2-0.2,0.7,0c0.4,0.2,1.1,0.9,2,2
		c1.3-1.1,8.5-4.9,21.4-11.4c-13,14.3-28.1,24.7-45.6,31.2c-0.9,0.5-1.3,0.9-1.3,1.3l0.7,1c4.5-0.2,15.6-5.6,33.5-16.1L543,256.7
		c-11.2,8-18.5,11.7-22.1,11.1c-0.7,0-2.5-1.3-5.5-4c-3-2.7-4.6-4.4-4.9-5c-2.2,0.7-3.5,1.9-3.7,3.7l-4-0.7
		c-2.2-0.4-7.4-6.8-15.4-19.1c-3.1-4.9-4.7-14.6-4.7-29.1c0.2-10.5,1.1-20.8,2.7-30.8c0.4-2.9,3.4-15.2,8.7-36.9
		c-5.6,0.9-9.7,1.1-12.4,0.7c-1.6-0.2-4.1-1.1-7.7-2.7c-3.6-1.6-6.4-2.5-8.4-2.7l-9-1.3c-1.6,0-2,0-1.3,0c0-0.7,0.3-1.5,1-2.3
		c2-0.7,3.8-0.9,5.4-0.7c0.9,0.2,2.3,0.6,4.4,1c2,0.5,3.5,0.8,4.4,1l1-0.7c-0.5-0.7-1.9-1.7-4.4-3c1.1,0,3-0.1,5.7-0.3
		c-6.5-6.5-10.3-9.8-11.4-10.1c-0.7,0-2.8,0.2-6.4,0.7c0.2-0.7,0.8-0.9,1.7-0.7c0.2-0.2,0-0.7-0.7-1.3c1.8-1.8,3.6-3.6,5.4-5.4
		c4.7,0,7.1-0.8,7.4-2.3c0.4-2,0.1-3-1-3c-1.8-0.2-3.2-1-4.4-2.3c2-0.2,5-0.8,9-1.7l-1-1.3c1.3-0.7,3.5-1.8,6.4-3.4
		c0.4-0.7,0.3-1-0.3-1c1.3,0.2,2.1,0.7,2.3,1.3c1.6-0.4,2.6-1.8,3-4c1.6-0.7,3.8-1.2,6.7-1.7c4.2-0.4,10.6-1.2,19.1-2.3
		c0.9-1.8,3.6-9.6,8-23.4l0.7-4.7c0.2-0.9,1.2-3.1,3-6.7l0.3-3.4c0.7-1.8,1.9-4.6,3.7-8.4c0.2-0.9,0.7-2.2,1.3-4
		c1.8-2,3-3.9,3.7-5.7c2.7,1.8,5.7,3.9,9,6.4c1.3-1.1,3.2-2.7,5.7-4.7c0,0.9,0.9,3.5,2.7,7.7c0.9-2,2.3-5.4,4.4-10l1.7,0.7
		c0,1.8,0.8,4.6,2.3,8.4c0.4,3.1,0.7,6.5,0.7,10c0,5.6,0.2,8.2,0.7,7.7l-0.7,3h-1c-1.3,5.6-3.6,14-6.7,25.1c0.2,0.5,0.6,1,1,1.7
		c0.4,0,1-0.3,1.7-1c-0.2,0.9,0.1,1.5,1,1.7c1.6,0.2,4.1,0,7.7-0.7c3.1,0.2,8.1,0.3,15.1,0.3c8.7,0,13.7-0.1,15.1-0.3
		c-1.3,2.5-3,3.6-5,3.4l-5-0.7l-1,0.3c0.7,0.9,1.7,1.5,3,1.7c0.9,0,2.3-0.2,4.4-0.7c2-0.4,3.5-0.6,4.4-0.3c0.4,0,0.6,0.2,0.3,0.7
		c-0.2,0.5,0,0.7,0.7,0.7c-1.6-0.2,2.8-0.9,13.1-2c1.6,0,6.8,0,15.7,0c-0.7,0-2.2,0.5-4.5,1.5c-2.3,1-3.9,1.4-4.5,1.2
		c-4.9-0.7-9.3-0.3-13.1,1c0.7,0.9,1.3,1.3,2,1.3c10.5,1.8,14.7,2.2,12.7,1.3c0.7,0.9,2.5,3.2,5.4,7c0,0.7,0.1,1.3,0.3,2
		c1.8,0.9,2.3,1.2,1.7,1c1.6,0.2,4.7,0.2,9.4,0l0.7,0.7L629.8,118z M460.3,134.4l-4.7-0.7c0.7-0.2,1.3-0.6,2-1
		C458.5,133.8,459.4,134.4,460.3,134.4z M522.3,39.3c-1.3,0.9-2.1,1.3-2.3,1.3l-4-0.7c-0.2-0.2-0.5-0.7-0.8-1.3
		c-0.3-0.7-0.6-1.1-0.8-1.3c-1.3,0.2-2.5,1.1-3.3,2.5c-0.9,1.5-1.1,2.6-0.7,3.5c1.6,5.1,1.2,8.7-1,10.7c-2,1.3-4.9,3.2-8.7,5.7
		c-6.9,0.5-10.2,0.8-9.7,1c-1.3-0.2-2.3-1.1-3-2.5c-0.7-1.4-0.7-2.8,0-4.2c-0.7-0.9-1.6-2.3-2.7-4.4c-0.2-2.2-0.6-5.4-1-9.4
		c-1.6,1.3-2.8,1.9-3.7,1.7c-5.6-0.9-7.9-3.8-7-8.7c0.4-2.5,2-4.8,4.7-7c2.7-2.2,5.2-3.1,7.7-2.7c0.4,0,1,0.2,1.7,0.7
		c0.7,0.5,1.2,0.8,1.7,1c0.4,0,1.9-0.5,4.4-1.5c2.5-1,3.9-1.4,4.4-1.2c1.8,0.2,5,2.1,9.7,5.7c0.9,1.3,2.6,3.4,5,6
		c0.7-1.3,1.8-2.9,3.4-4.7c1.3-1.1,2.5-1.6,3.4-1.3c1.6,0.2,2.9,1.7,4,4.4L522.3,39.3z M490.8,69.7l-6-2.3l0.3-0.7l5.7,2V69.7z
		 M495.8,84.8c-0.5,2.2-1.7,3.1-3.7,2.7c-3.6-0.4-5.9-2.2-7-5.4c1.1-2.5,2.5-3.6,4-3.4C494,79.5,496.2,81.5,495.8,84.8z M509.5,46.3
		l-0.7-1l-0.7,0.3l0.7,1L509.5,46.3z M520.6,53.3l-12.4,36.5l10-40.2C518.7,49.9,519.5,51.1,520.6,53.3z M527.6,208.8
		c-1.1,0-1.9-0.6-2.3-1.7c-0.7-2.5-0.8-5-0.3-7.7c-0.2,1.8,1.8-6,6-23.5c-0.7,3.1-1.2,8.4-1.5,15.9
		C529.1,199.3,528.5,205,527.6,208.8z M553.1,87.2l-1.3,5.4h-1.3l1.7-5.7L553.1,87.2z M556.8,46.3h-1l0.3-1.3h1L556.8,46.3z
		 M577.2,47.6c-0.2,2.2-2,4.1-5.4,5.7c-0.7-0.9-1-1.6-1-2c0.2-0.9,1.1-2.1,2.5-3.7c1.5-1.6,2.6-2.5,3.5-2.7
		C577.3,45.6,577.4,46.5,577.2,47.6z M619.1,48c-2,1.3-3.6,1.9-4.7,1.7l-0.7-0.7l0.3-2c0.4-0.4,2-1.2,4.7-2.3l1,0.7L619.1,48z"/>
	<path class="st0" d="M571.8,211.8h-2.3v-1.3h2.3V211.8z M579.2,207.4l-3,1c-1.3,2.7-2,3.4-2,2c0-0.4,0.3-1.1,1-2
		c-1.1,0.5-2.9,0-5.4-1.3c0,0.5,0.6,0.7,1.7,0.7l6.7-2C578.9,206.7,579.2,207.2,579.2,207.4z M577.5,211.1l-3.3,2l-0.3-1l2.7-2
		L577.5,211.1z M579.9,195.4l-3.7,3.7l-0.3-1l3.4-3.4L579.9,195.4z M795.3,163.5c-1.3,0-2.6,0.8-3.7,2.3c-0.9,1.3-0.9,2.7,0,4
		c-1.3,0.2-6.6,0.9-15.7,2c0,0.9,0.2,1.3,0.7,1.3h9.7c0,0.5,0.2,1,0.7,1.7c-4.2,0.2-8.4,0.3-12.4,0.3c-5.8,0.7-9.7,1.8-11.7,3.4
		c0.7,0.2,3.3,0.3,8,0.3c-1.3,0.2-3.4,0.8-6,1.7c-0.4,0.2-0.2,0.7,0.7,1.3c-1.1-0.4-2.1-0.3-3,0.3c2.7,0.2,6.6,0.6,11.7,1
		c-37.5,6.3-68.2,12.2-92.1,17.8c-1.8,1.3-5.3,3.4-10.4,6c-2.2,0.7-9.8,2.7-22.8,6v7c1.3,0,3.4,0.2,6,0.7h2c-5.6,0-8.4,1.3-8.4,4
		c-3.1,27.9-6,48.2-8.7,61c0.7-4.5,1.5-11.4,2.3-20.8l-1-1c-0.2,0-0.7,0.3-1.3,1c0.7,3.6-0.6,10.7-3.7,21.4
		c0.9-3.3,1.3-7.4,1.3-12.1c-0.2,0-0.5,0.1-0.7,0.3c-2,5.8-7,14.7-15.1,26.8c-0.4,0.2-1.1,0.7-2,1.3c-0.9,2.2-2.1,5.9-3.7,11.1
		c-2.2-2.2-3.1-3.8-2.7-4.7c2-6.9,0.2-13.1-5.4-18.4v-1.7l-1-1.3c-1.8,0.9-0.1,6.4,5,16.4c0-0.7-0.1-1.8-0.3-3.5
		c-0.2-1.7-0.3-2.8-0.3-3.5c0,1.1-2.3-2.7-7-11.4l-1-1c-0.7,1.6-1.8,3.6-3.4,6c-1.1-1.1-1.7-1.8-1.7-2c0-1.3,0.4-3.4,1.2-6.2
		c0.8-2.8,1.2-4.9,1.2-6.2c-0.7,1.3-1.8,4.2-3.3,8.7c-0.5-0.2-0.8-0.7-1-1.3c3.3-14.7,5-23.5,5-26.1V256c-0.7-0.4-1.7-0.6-3-0.3
		l5.4-38.2c-0.7-0.9-1.2-1.3-1.7-1.3c-0.9,0.2-2.3,1.5-4.4,3.7l0.7-0.3c0.4-0.2,0.7-0.6,0.7-1c0.7-0.2,0.4-0.3-0.7-0.3
		c-0.9,0-3.5,1.2-7.7,3.7l-8,4.4c-0.5,0.2-0.8,0.3-1,0.3l-3.7-0.3c4.5,0.2,8.7-1.9,12.7-6.4c0.2,0.2-0.3,0.3-1.7,0.3
		c-0.5,0-0.6-0.2-0.3-0.7v-1.3c-2.7,2.7-4.7,4-6,4c-0.5,0-0.9-0.2-1.3-0.7l-1-0.7l1-0.7c0.2-0.4,0.6-0.7,1-0.7
		c0.9,0,1.3,0.1,1.3,0.3c0,0.2,0.1,0.3,0.3,0.3c1.1-2,1.7-3.2,1.7-3.7c0-0.9-1-2.6-3-5c0.4-1.3,1-3.2,1.7-5.7c0.2-0.4,0-0.7-0.7-0.7
		c-0.9,0-1.9,0.6-3,1.7c0.4-0.9,0.9-2.6,1.3-5h-4c4.2-3.1,9.8-7.3,16.8-12.4c2.9-0.7,6.4-2.7,10.4-6c-0.2-0.2-0.8-0.3-1.7-0.3
		c-2.9,0-6.6,1.4-11.2,4.2c-4.6,2.8-7.8,5.5-9.5,8.2c-0.2-0.4,0-1,0.7-1.7c-0.9-0.7-1.5-1-1.7-1c-0.7,0.2-1,0.8-1,1.7
		c0-1.8,0.4-3.5,1.3-5c-0.4,0.7-0.3,1.3,0.3,2c0.7-0.2,1.8-1,3.3-2.3c-0.9,0.9-1,1.6-0.3,2c3.1-5.1,10.4-8.8,21.8-11.1
		c0.7-0.7,1.3-1.6,2-2.7v-1.3c-0.2-0.4-0.8-0.7-1.7-0.7L596,180c-0.2,0.5-0.2,0.8,0,1c-0.2-0.2-0.8-0.3-1.7-0.3
		c-1.3,0-4.8,1.7-10.4,5v-2c-0.5,0-1.3,0.7-2.7,2c1.8-1.8,4-4.1,6.7-7c2-0.9,2.9-1.3,2.7-1.3h1c0,0.5,0.2,0.7,0.7,0.7
		c0.9,0,6.4-1.7,16.4-5c0.4-1.6,0.4-3,0-4.4H608c0-0.2,0.2-0.6,0.5-1c0.3-0.4,0.5-0.8,0.5-1c0.2-0.7,0.2-1.9,0-3.7
		c0.2-0.9,0.3-2.7,0.3-5.4l7.4-60.3c0-2.5,0.9-6.6,2.7-12.4c2.2-7.1,3.5-11.5,3.7-13.1c2.7-13.2,5.7-23.8,9-31.8
		c2.2-0.9,3.9-2.7,5-5.4l2.7-7c-0.2,0.7-0.3,1.3-0.3,2c0,0.5,0.1,0.8,0.3,1c2.2-4.5,6.9-9.3,14.1-14.4l-3,3c0.7,0.5,1.6,0.1,2.7-1
		c-4.2,5.1-6.1,8.4-5.7,9.7c0.2-0.9,1-2.1,2.3-3.7c12.1-6.7,18.6-10,19.8-10l1.3,1.3c1.3-2.5,5.9-3.7,13.7-3.7c3.1,0,6.2,1,9.4,3
		c2.7,2.7,4,4.1,4,4.4c0.7,0,1-0.2,1-0.5c0-0.3,0.2-0.5,0.7-0.5c0.4,0,0.9,0.5,1.3,1.3c0.4,0.9,0.9,1.3,1.3,1.3
		c6.9,0.5,12.5,2.3,16.8,5.7c1.8,1.3,3.7,3.1,5.7,5.4c3.8,2.7,6.9,4,9.4,4c-0.9,0,0-0.7,2.7-2c0.9,2.5,2.1,5.8,3.7,10.1
		c-0.9,0.2-3-0.1-6.4-1c-3.3-0.9-5.4-1.3-6-1.3c-0.7,0-1.7,1-3,3c-1.3,2-2.2,3-2.7,3c-0.9,0-4.5-2-10.9-5.9
		c-6.4-3.9-10.1-6.4-11.2-7.5c-0.9,0-1.3,0.3-1.3,1c0,0.2,0.2,0.6,0.7,1c-1.1-1.1-2.2-1.7-3.3-1.7l-2,1c-2,0.5-4.9,1.6-8.7,3.4
		c-6.9,7.8-12.7,22.7-17.4,44.6c-0.9,3.4-2.2,10.5-4,21.4c-0.7,0.7-1.3,1.8-2,3.4c-0.7,4-1.5,9.6-2.3,16.8c-0.9,1.3-1.9,3.4-3,6
		l-1.7,25.1c0.2,0,0.7,0.2,1.3,0.7c0.7,0.5,1.1,0.7,1.3,0.7c-1.1,0-2.2,0.8-3.3,2.3c1.1,0.7,3,0.8,5.7,0.3c1.3-0.2,3.2-0.4,5.7-0.7
		c-2.7,0.7-6.7,2.2-12.1,4.7c0,0.5,0.2,0.7,0.7,0.7l44.6-7.7c2.2,0.2,5.9,0.6,11.1,1c-7.4,0.9-19.8,3.5-37.2,7.7
		c2.9,1.1,4.7,1.7,5.4,1.7l66.3-7.4l-45.2,7.4l-1.3,1c0.2,0.2,1.3,0.3,3.4,0.3l53.9-8.7C776.3,160.2,789.5,161.3,795.3,163.5z
		 M582.2,213.8c-1.3,1.6-2,2.5-2,2.7c0-0.2-0.1-0.7-0.3-1.3l-0.3-1.3l0.7,1.3C580.9,214.2,581.5,213.8,582.2,213.8z M587.2,217.5
		l-0.7-1l-1.3,1v0.7L587.2,217.5z M600.6,228.9c-1.1-0.4-2.6,0.2-4.4,1.8c-1.8,1.7-3.1,2.5-4,2.5c2.5-1.1,5.5-2.6,9-4.4H600.6z
		 M608.7,262.4v-6.7c-0.5,0-1-0.3-1.7-1c-0.2,0.7-0.7,1.6-1.3,2.7c-0.7,6.3-1.5,14.5-2.3,24.8C606.9,269.9,608.7,263.3,608.7,262.4z
		 M607,183.3v-1h-2v1H607z M612,306.9h-1.3v-1.7h1.3V306.9z M613,122.7h-1v-2.3h1V122.7z M638.2,54v-2.7h-0.7V54H638.2z M646.2,19.8
		l-4.4,5.4l-0.7-1l4.4-4.7L646.2,19.8z M642.2,47.6V45h-1v2.7H642.2z M644.2,40.3h-0.7l-1.7,4.4l0.7,0.3L644.2,40.3z M645.2,40.3
		v-1.7h-1.3v1.7H645.2z M648.5,29.9h-0.7l-3.7,8l1.3,0.3L648.5,29.9z M678,31.9h-0.7l-2.7,5.7l0.7,0.3L678,31.9z M692.1,16.8
		c-0.7,0-1.7-0.2-3-0.7c-1.3-0.4-2.5-0.7-3.3-0.7c-2.2,0-4.2,0.7-6,2C682.4,17.5,686.5,17.3,692.1,16.8z M716.2,158.2h-4.4v-1h4.4
		V158.2z M722.6,157.5h-4.7v-1.3h4.7V157.5z M727.6,156.5h-4.4v-1h4.4V156.5z M733.6,156.2h-5v-1h5V156.2z M735.6,32.6l-0.3,1l-2-1
		v-0.7L735.6,32.6z M739.3,155.5h-3.7v-1.3h3.7V155.5z M763.8,214.5h-2.3v-1h2.3V214.5z"/>
	<path class="st0" d="M854.9,164.2c0,4-1.7,9.9-5,17.8c-1.3,3.8-3.2,9.8-5.7,18.1c-2.7,2.9-6.5,7.8-11.4,14.7l1.7-3.4
		c1.3-2.5,1.8-3.9,1.3-4.4c-1.8,2.5-4.2,6.5-7.4,12.1c-1.3,1.1-3.3,3.2-6,6.4c-1.3,2.5-3.2,6-5.7,10.7c-5.8,8.3-12.3,15-19.4,20.1
		c-12.3,9.2-20.4,13.7-24.5,13.7c-0.7,0-1.7-0.2-3-0.7c-1.3-0.4-2.2-0.7-2.7-0.7c-1.8,0-4.3,0.4-7.5,1.2c-3.2,0.8-5.8,1.2-7.5,1.2
		c-6.7,0-13.9-3.6-21.4-10.7l-6.7-1.3c-0.2,0.7-0.3,1.6-0.3,2.7c0,1.1,0.1,2.5,0.3,4c-2.2-2.9-5.3-6.7-9-11.4
		c-0.2-1.1-0.8-3.1-1.7-6c-0.7-0.4-1.3-0.9-2-1.3c-0.4-2.9-1.1-7.4-2-13.4c1.1-1.3,1.7-2.3,1.7-3c-2.2-5.1-3.7-9.5-4.4-13.1
		c0.7-0.7,0.7-6.7,0-18.1c2-16.3,6.1-32.4,12.4-48.2c2.5-6.9,7.3-14.2,14.4-21.8c7.6-8.9,14.4-14.1,20.4-15.4
		c0.9,0,5.1-1.8,12.7-5.4c-15.4,6.3-27.7,16-36.8,29.1c-0.2,0.2,0,0.7,0.7,1.3l1.7-1.3c-2.9,3.1-5.3,6.9-7,11.4l1.3,0.7
		c6.9-9.6,18.2-19.8,33.8-30.5c-0.7,0-2.6,0.6-5.7,1.7c14.3-8.5,25.3-12.6,33.2-12.4c-0.2,0-0.7,0.3-1.3,1c0.7,0.4,1.4,0.7,2.3,0.7
		c1.1,0,2.8-0.2,5-0.7c2.2-0.4,3.9-0.7,5-0.7c0.7,0,2.2,0.8,4.5,2.3c2.3,1.6,3.7,2.3,4.2,2.3c0.9,0,1.3-0.2,1.2-0.5
		c-0.1-0.3,0.1-0.5,0.5-0.5c0.7,0.2,1.6,1,2.8,2.2c1.2,1.2,4.5,4.9,9.9,10.9c0.9,2,3.1,4.7,6.7,8l1.3-1.3c-1.6-0.7-2.2-1.6-1.8-2.7
		c0.3-1.1,0.1-2-0.8-2.7c3.6,0,6.3,0.8,8,2.3c1.3-1.6,2-2.6,2-3c0.9,2.5,2.7,5,5.4,7.7c1.6,1.8,3.9,7.5,7,17.1
		c0,0.9,0.1,2.3,0.3,4.4c0.4,0.9,1.5,1.8,3,2.7C854.2,160.2,854.9,162.2,854.9,164.2z M741,128.7l-4.4,4.7l-0.3-1l4-4L741,128.7z
		 M746.4,125.4l-4.4,3.4l-0.3-1.3l4-3L746.4,125.4z M799.6,157.5c-2.2-3.4-3.6-5.9-4-7.7c-2.9,2-7.6,5.8-14.1,11.4
		c0.2-1.3,1.1-3,2.7-5c-10.3,12.7-17.8,26.9-22.4,42.5c-0.9-1.3-1.5-2-1.7-2c-1.6,0-3.1,2.7-4.5,8c-1.5,5.4-2.2,9.2-2.2,11.4
		c0,4.5,1,10.3,3,17.4c8.9-2.5,17.5-9,25.8-19.8c8.3-10.7,12.3-20.4,12.1-29.1c0.9,0.5,1.6-0.2,2-2l1-2.3c-1.8-0.7-3.7-1.4-5.7-2.3
		c0.2-1.1,0.3-2,0.3-2.7c0-2.2-3.6-4.2-10.7-6l8.4-0.3c1.1,0.5,2.7,1.5,4.7,3c0.2-0.7,0.6-1.4,1-2.3c-1.3,0-2.1-0.1-2.3-0.3
		c1.1-1.1,1.6-2,1.3-2.7c-0.9-0.7-2.1-1.6-3.7-2.7c3.4-1.1,5.6-2.6,6.7-4.4c-0.7-0.9-1.6-1.9-2.7-3c0.7,0,1.6,0.2,2.7,0.5
		C798.4,157.3,799.2,157.5,799.6,157.5z M769.8,108.6h-2v-1.3h2V108.6z M784.2,108.9c-2.5,0.7-7.5,2.3-15.1,5h3
		C773.5,114.2,777.5,112.5,784.2,108.9z M774.2,106.9h-2v-1.3h2V106.9z M788.9,179h-1.7v-1.3h1.7V179z M848.5,124h-1.3v-3h1.3V124z"
		/>
	<path class="st0" d="M927.9,225.9c-1.1,0.9-5.3,3.2-12.4,7c0.4,0.9,0.8,1.3,1,1.3c0.9,0,1.7-0.3,2.3-1c-0.2,0.7-0.3,1.1-0.3,1.3
		c-0.4,0.2-0.2,0.3,0.7,0.3c0.7,0,1.1-0.3,1.3-1c0.7,1.3,0.9,2.8,0.7,4.4c-0.2,1.6-0.6,2.6-1,3c-3.8,1.3-8.2,4.1-13.1,8.4
		c-0.2,0-0.7-0.2-1.3-0.7c-0.7-0.4-1.2-0.7-1.7-0.7c-1.1-0.2-3,0.6-5.7,2.3l-0.3,2c-1.6,0.7-2.9,1.5-4,2.3c-0.4,0.2-0.2,0.3,0.7,0.3
		c0.9,0.2,2.3-0.1,4.4-1c-1.3,0.5-3.1,1-5.4,1.7c-0.7,0.9-1.6,2-2.7,3.3c-1.3-0.2-3.3-0.2-6,0c-2.5,1.3-4.8,2.5-7,3.4
		c-2.9,1.8-4.8,3.7-5.7,5.7c0.2-1.1-0.1-2.3-1-3.7c-1.6,1.1-2.3,2.3-2.3,3.7c-0.2,1.1-0.1,2,0.3,2.7l-1.3-1.7
		c-1.1,1.1-2.7,3-4.7,5.7c-0.2-0.4-0.7-1.1-1.3-2c-2,0-3.1,1-3.4,3c-0.2,2-0.3,3.7-0.3,5v1h-2.3c0-0.7,0.2-1.3,0.7-2v-2.3
		c0.2-0.7,0.1-1.7-0.3-3l-5.4,4.4c-2.9-0.2-5-1.8-6.4-4.7l-2,1.7c0-1.1-0.3-2.1-1-3c-0.2,0.2-0.4,0.6-0.7,1c-0.2,0.4-0.4,0.8-0.7,1
		c0-0.9,0.6-2.5,1.7-4.7l-1-0.7c-0.7,0.9-1.5,1.9-2.3,3c0-0.7,0.3-2.3,1-5c0.2-2.7-0.4-4-2-4c-0.7-0.2-1.9,0-3.7,0.7
		c0,0.7,0.1,1.2,0.3,1.7l1.7-1c0.7,0,0.1,0.8-1.7,2.3c0-1.3-0.6-2.6-1.7-3.7c0-0.2-0.2-0.1-0.7,0.3c0,1.1,0,2.8,0,5
		c-0.2-1.3-0.2-2.9,0-4.7c-0.2-0.2-0.8-0.3-1.7-0.3c-0.4,0-0.8,0.2-1,0.5c-0.2,0.3-0.4,0.5-0.7,0.5c0.4-0.2,0.7-0.6,0.8-1
		c0.1-0.4,0.3-0.8,0.5-1c-0.9-1.1-1.9-2.2-3-3.4l3,2c0.4-0.4,0.2-1.2-0.7-2.3l6.7-8.7c-0.2-0.2-0.8-0.3-1.7-0.3c1.3,0-1.1,0.7-7.4,2
		c2.2-1.1,5.5-2.8,9.7-5c0-0.4,0-1.1,0-2c0.4-0.4,1.9-2.7,4.4-6.7c0.4-0.4,1.7-1.4,3.9-3c2.1-1.6,3.2-3,3.2-4.4
		c1.3-0.4,2.7-1.3,4-2.7C864.4,202,874.1,167,881,123.7l1-17.1c-3.6,21.2-5.6,33.5-6,36.9c-3.1,14.1-6.7,26-10.7,35.8
		c6.5-33.3,10-54.2,10.7-62.6l0.7,1.3c0.2-0.4,0.3-1,0.3-1.7c0.2-0.4,0.2-0.9,0-1.3c-1.3,1.1-2,1.3-2,0.7c0-0.2,0.2-0.7,0.5-1.5
		c0.3-0.8,0.5-1.5,0.5-2.2l2-52.3c0.2-7.1,1.6-13.2,4-18.1v-1.3c0.7-0.4,1.7-1,3-1.7c0.2-0.9,0.3-1.5,0.3-1.7h0.7c0.4,0,0.8,0,1,0
		c0,0.5,0.2,1.1,0.7,2l-2.7,55.6c0.7-2.5,1.8-11.5,3.4-27.1l-0.3-14.7c0.4-3.6,1.3-7.6,2.7-12.1c0.2,0.9,0.6,2,1,3.4
		c1.3-1.1,2.1-3.5,2.3-7c1.6,0.9,2.8,1.3,3.7,1.3c0.4-0.4,1.2-1.3,2.3-2.7v2.7c0.7,0.2,2.2,0.4,4.7,0.7c1.6,0.2,2.3,0,2.3-0.7
		c-0.2,1.1-0.1,2.1,0.3,3c0-1.1,0.6-2.6,1.7-4.4c1.1-1.8,2.1-2.6,3-2.3v2c-1.6,0.9-2.6,1.8-3,2.7l0.3,2.3c1.8-0.7,3.8-2.5,6-5.4
		l-0.7,5.4c0,2.2,1.4,3.5,4.4,3.7c-0.9,2-1.5,3.8-1.7,5.4c-0.2,2.7-0.1,10.2,0.3,22.4l-0.7,6c-0.2,2.2,0.2,3.7,1.3,4.4l-3.3,31.5
		c-2.2,22.6-9.4,54.4-21.4,95.5c0,0.5-0.5,1.7-1.3,3.7c-0.5,0.7-0.6,1.1-0.3,1.3c0.7-0.4,1.5-0.6,2.3-0.3c0.4,0.2,1.3,1.2,2.7,3h1.7
		c1.3-1.3,2.1-2.8,2.3-4.4c0,0.2,0.2,0.8,0.7,1.7c0.9,0,1.5-0.4,1.7-1.3c-0.7,1.3-2.6,3-5.7,5c2,0.5,3.6,0.7,4.7,0.7
		c5.4-2,8.5-3,9.4-3c0.7,0,1.4,0.5,2.3,1.5c0.9,1,1.4,1.5,1.7,1.5c0.4,0.2,0.9,0,1.3-0.7c0.4-0.7,0.9-0.9,1.3-0.7
		c2.5,0.2,5.7,1.5,9.7,3.7L927.9,225.9z M835.1,258l-0.7-0.7l-1,2l0.7,0.3L835.1,258z M837.8,262.7c-0.7-2.5-0.9-4.5-0.7-6
		c-0.4,0.5-1.3,2.2-2.7,5.4C836.3,262,837.4,262.3,837.8,262.7z M836.5,272.8l-1-0.3l0.3-3l1,0.3L836.5,272.8z M844.9,271.4
		l-1.3-0.3l-0.7,3h1L844.9,271.4z M845.9,232.6l-1,1.3l-0.7-0.3l1-1.3L845.9,232.6z M860.9,198.1c-0.7,2.7-2.8,7.4-6.4,14.1
		c-1.6,2-3,4.4-4.4,7c1.8-4.9,4.6-12.1,8.4-21.4L860.9,198.1z M864.6,178.6l-1,2.3l-1-0.3l0.7-2.3L864.6,178.6z M870.3,144.5h-0.7
		l0.3-2l0.7,0.3L870.3,144.5z M874,126.7l-0.7,4.4l-1-0.3l0.7-4H874z M889.4,264.4c-3.6,2-7.3,4.6-11.1,7.7c0.9,1.8,2.2,2.8,4,3
		c0.4,0.2,0.9,0.2,1.3,0v-0.7c-0.2,2-0.4,2.9-0.7,2.7c-0.2-0.2-0.8-0.2-1.7,0l-1,0.3c-1.3-1.3-1.7-2-1-2c-0.9-0.7-3-1.2-6.4-1.7
		C878.4,270,883.8,266.8,889.4,264.4z M874.7,122l-1-0.3l0.3-5h1.3L874.7,122z M878.7,91.9l1.7-32.2c-0.4-0.2-1.2,3.5-2.3,11.1
		C878.9,80.1,879.1,87.2,878.7,91.9z M889.1,258.4l0.3-1.3h-2.3l-0.3,1L889.1,258.4z M892.4,211.8h-0.7l-2,3l0.7,0.7L892.4,211.8z
		 M893.8,205.8h-1l-1.7,4.7h0.7L893.8,205.8z M895.8,217.8l-0.7-1.3l-4,2.3v1.3L895.8,217.8z M902.1,254l-1.7,0.3v-1l1.7-0.7V254z
		 M911.2,256.3c-0.2,0-0.6,0.2-1.2,0.5c-0.6,0.3-1.2,0.4-1.8,0.2l-4-0.3c1.1-0.9,2.5-1.2,4-1L911.2,256.3z M915.2,215.1l-1.7,2.3
		l-0.7-1l1.7-2L915.2,215.1z M920.6,118l-1.3-0.3l0.3-3.3l1.3,0.3L920.6,118z M920.6,216.5h-1.3l0.3-2l1,0.3V216.5z M921.9,104.9
		h-1.3l0.3-3.3h1.3L921.9,104.9z M927.3,224.2h-1l-1,2.7h1L927.3,224.2z"/>
	<path class="st0" d="M1027.8,233.2c-3.6,2.5-5.4,4.1-5.4,5c-0.2,0.7,0.2,1.1,1.3,1.3c-0.9,0.9-4,3.6-9.4,8c-0.5,0.4-0.7,1.1-0.7,2
		c-1.8,2-3.9,4.2-6.4,6.7c-1.1,1.1-3.1,3-6,5.7c-2.5,1.6-5.7,3.9-9.7,7l-0.3,0.7l1.7-1c-0.2,0.2-0.4,0.6-0.7,1
		c0,0.4,0.2,0.9,0.7,1.3c-1.3,0.7-2.8,0.9-4.4,0.7c-0.2,0.4-0.5,0.9-0.7,1.3c0,0.4,0.2,0.8,0.7,1h-1c-0.7-0.5-1.2-0.7-1.7-0.7
		c-1.1,0-1.7,0.4-1.7,1.3c-0.2,0.7-0.2,1.6,0,2.7c-1.1-0.7-2.6-1-4.4-1c-0.9,0.7-1.5,1-1.7,1c-0.7-0.2-1.7-0.6-3-1.2
		c-1.3-0.6-2.3-0.8-3-0.8c-1.1-1.1-2.5-2.9-4-5.4c-0.2-0.7-0.7-1-1.3-1c-0.7,0-1,0.4-1,1.3c-0.2-0.4-0.8-1.2-1.7-2.3
		c-0.7,0.9-1.5,1.2-2.3,1c-2.5,0.2-4,0.3-4.7,0.3c-0.5,0-0.6-0.1-0.3-0.3c0.4-0.5,0.4-0.7,0-0.7c-2.5-0.2-4.5-2.3-6-6.4
		c-4.9-12.7-6.7-25.8-5.4-39.2c1.3-11.4,4.4-26.5,9-45.2c3.8-16.5,7.7-29.9,11.7-40.2c1.3-3.4,3.6-6.7,6.7-10c0.9-0.2,2.2-0.8,4-1.7
		c0.4-0.2,1.6-1,3.3-2.3c0.9,1.3,2.3,3.6,4.4,6.7c3.6-2.2,6.3-3.2,8-3h2c0,0.2-0.1,0.6-0.3,1l-0.3,0.7c0.4,0.5,0.8,0.7,1,0.7
		c0.7,0,1.8-0.9,3.3-2.7c0.7-0.2,1.6-0.7,2.7-1.3c-2.2,2.9-3.5,5.1-3.7,6.7v2l1,1c0.7,0,1.4-0.3,2.3-1c0.2,1.6,0.3,2.8,0.3,3.7
		c-0.2,0.9-0.7,1.3-1.3,1.3h-1.3l0.3,2.7c0.7-0.7,1.3-1,2-1c0,0.2,0.1,0.7,0.3,1.3c-1.6,0.9-2.5,1.9-2.7,3c0.2-0.4,0.2-0.8,0-1
		l-4,20.4c-6.3,21.4-10.2,39.9-11.7,55.3c-0.7,7.1-0.9,14.1-0.7,20.8c0.2,0.2,0.6,0.5,1,0.7l27.5-17.8c-2,4-5.6,8-10.7,12.1
		c-2.5,1.8-6.9,5-13.4,9.7c0.9-0.7,6.3-4.2,16.1-10.7l-17.8,14.1c0.2,0.2,0.8,0.1,1.7-0.3l-2.3,1.7c0,0.2,0.3,0.3,1,0.3
		c0.9,0.2,12.1-7.3,33.5-22.4c0.2,0.5,0.8,0.8,1.7,1c0.7-0.2,2-0.7,4-1.3c-2.2,1.6-3.3,2.8-3.3,3.7c-0.2,1.6,0.6,2.5,2.3,2.7
		C1024,233.9,1025.5,233.7,1027.8,233.2z M957.4,267.1v-0.7l-2.3-0.3v0.7L957.4,267.1z M962.4,259l0.3-1l-3.7-0.3l-0.3,1L962.4,259z
		 M961.8,268.4l0.3-1.3h-1l-0.3,1.3H961.8z M964.4,255.7l-3-0.3l-0.3,1.3C962,256.5,963.1,256.1,964.4,255.7z M968.1,283.1l-6.4-1.3
		l0.3-1l6,1.3V283.1z M1034.8,80.5c-0.4-0.4-1.1-1.2-2-2.3c-0.2,0-0.4,0.1-0.7,0.3c0.2,0.7,0.3,1.6,0.3,2.7c-0.2,1.8-0.9,3.8-2,6
		c0.2-1.6,0.1-4.2-0.3-8c-0.4-0.2-0.8-0.2-1,0c0,0.5,0,1.2,0,2.3c-1.8,1.6-2.6,3.4-2.3,5.4c0.4,0.5,1.2,1.2,2.3,2.3
		c0.4-0.4,0.7-0.8,0.7-1l-3,7.7c-2.7,2.5-7.3,6-13.7,10.7c0,0.5,0.3,0.9,0.8,1.3c0.6,0.5,0.8,0.9,0.8,1.3c0,0.2-0.2,0.6-0.7,1
		c-2-1.8-3.5-2.7-4.4-2.7l-5.7,2.7c1.3-1.8,2.1-3,2.3-3.7l-2.3-0.3l-0.3,3.4c0-0.4-0.3-0.7-1-0.7c-0.5,0-0.7,0.1-0.7,0.3
		c0,0.7,0.2,1.3,0.7,2c-0.5-0.4-1.1-1.5-2-3.2c-0.9-1.7-1.6-2.5-2-2.5c-2-0.2-3.5-0.1-4.4,0.3c-0.7-3.4-2-4.7-4-4
		c1.3-1.3,2.1-2.3,2.3-3c-0.7-0.7-1.1-1-1.3-1l-1.7,1.3c-1.6,1.3-3,1.9-4.4,1.7c-0.2,0-0.3-0.1-0.3-0.3c0-0.2-0.2-0.3-0.7-0.3
		c-0.2,0-0.7,0.2-1.5,0.7c-0.8,0.5-1.3,0.7-1.5,0.7c-2.5-0.2-3.3-4.1-2.7-11.7l1.3-1c0.9-2,1.2-4,1-6c1.3-4.5,5.1-12.1,11.4-22.8
		c4.9-2,9.4-3.7,13.4-5c-0.7-0.9-1.6-1.3-2.7-1.3c-0.4,0-1,0.2-1.7,0.7c-4.7,0.7-8.9,3.2-12.6,7.7c-3.7,4.5-5.9,9.2-6.5,14.1
		c0.9-2.7,1.8-6.4,2.7-11.1c-6.7,5.1-10.1,11.2-10.1,18.1c0.4,0.9,0.8,2,1,3.4c0-0.4-0.2-0.7-0.7-0.7c-0.5,0-1.1,0.1-2,0.3l-0.3-2.7
		c0.9-8.5,5.8-16,14.7-22.4l4.4-3.4c0-1.3-0.5-3.4-1.3-6c2-1.3,3.6-2,4.7-2c1.8,0.2,4.7,1,8.7,2.3l9,3c0,0.4,0.7,1.8,2,4
		c1.1-0.2,2-0.2,2.7,0c0.2,0.7,0.4,1,0.7,1c0.4,0,0.8-0.1,1-0.3c0.2-0.2,0.4-0.3,0.7-0.3c0.4,0,0.8,0.3,1.2,1c0.3,0.7,0.7,1,1.2,1
		c0.4,0,1-0.1,1.7-0.3c0.7-0.2,1.2-0.3,1.7-0.3c0,0.9,0.4,1.5,1.2,1.7c0.8,0.2,1.1,0.5,0.8,0.8c-0.2,0.3-0.1,0.5,0.3,0.5
		c2.5,0.2,4.1,0.2,5,0l0.7,1c-0.2,0.2-0.5,0.5-0.7,0.7c0,0.5,0.3,1.2,1,2.3l-4.4,2c0,0.5,0.4,0.8,1.3,1c-0.5,1.1-0.7,2.9-0.7,5.4
		c1.3,0,2.9,0.9,4.7,2.7L1034.8,80.5z M978.2,87.2l-0.7-0.3l-0.3-1.3h0.7L978.2,87.2z M985.9,245.6l-0.7-1l-1.7,1l0.3,0.7
		L985.9,245.6z M986.9,64.1h-0.7l-1,1l0.7,0.3L986.9,64.1z M1015,237.2v-0.3l-1.3,0.3v0.7L1015,237.2z M1029.4,86.5l-0.7,1l-0.7-0.3
		l0.3-1.3L1029.4,86.5z"/>
	<path class="st0" d="M1175.5,164.2c0,4-1.7,9.9-5,17.8c-1.3,3.8-3.2,9.8-5.7,18.1c-2.7,2.9-6.5,7.8-11.4,14.7l1.7-3.4
		c1.3-2.5,1.8-3.9,1.3-4.4c-1.8,2.5-4.2,6.5-7.4,12.1c-1.3,1.1-3.3,3.2-6,6.4c-1.3,2.5-3.2,6-5.7,10.7c-5.8,8.3-12.3,15-19.4,20.1
		c-12.3,9.2-20.4,13.7-24.5,13.7c-0.7,0-1.7-0.2-3-0.7c-1.3-0.4-2.2-0.7-2.7-0.7c-1.8,0-4.3,0.4-7.5,1.2c-3.2,0.8-5.8,1.2-7.5,1.2
		c-6.7,0-13.9-3.6-21.4-10.7l-6.7-1.3c-0.2,0.7-0.3,1.6-0.3,2.7c0,1.1,0.1,2.5,0.3,4c-2.2-2.9-5.3-6.7-9-11.4
		c-0.2-1.1-0.8-3.1-1.7-6c-0.7-0.4-1.3-0.9-2-1.3c-0.4-2.9-1.1-7.4-2-13.4c1.1-1.3,1.7-2.3,1.7-3c-2.2-5.1-3.7-9.5-4.4-13.1
		c0.7-0.7,0.7-6.7,0-18.1c2-16.3,6.1-32.4,12.4-48.2c2.5-6.9,7.3-14.2,14.4-21.8c7.6-8.9,14.4-14.1,20.4-15.4
		c0.9,0,5.1-1.8,12.7-5.4c-15.4,6.3-27.7,16-36.8,29.1c-0.2,0.2,0,0.7,0.7,1.3l1.7-1.3c-2.9,3.1-5.3,6.9-7,11.4l1.3,0.7
		c6.9-9.6,18.2-19.8,33.8-30.5c-0.7,0-2.6,0.6-5.7,1.7c14.3-8.5,25.3-12.6,33.2-12.4c-0.2,0-0.7,0.3-1.3,1c0.7,0.4,1.4,0.7,2.3,0.7
		c1.1,0,2.8-0.2,5-0.7c2.2-0.4,3.9-0.7,5-0.7c0.7,0,2.2,0.8,4.5,2.3c2.3,1.6,3.7,2.3,4.2,2.3c0.9,0,1.3-0.2,1.2-0.5
		c-0.1-0.3,0.1-0.5,0.5-0.5c0.7,0.2,1.6,1,2.8,2.2c1.2,1.2,4.5,4.9,9.9,10.9c0.9,2,3.1,4.7,6.7,8l1.3-1.3c-1.6-0.7-2.2-1.6-1.8-2.7
		c0.3-1.1,0.1-2-0.8-2.7c3.6,0,6.3,0.8,8,2.3c1.3-1.6,2-2.6,2-3c0.9,2.5,2.7,5,5.4,7.7c1.6,1.8,3.9,7.5,7,17.1
		c0,0.9,0.1,2.3,0.3,4.4c0.4,0.9,1.5,1.8,3,2.7C1174.8,160.2,1175.5,162.2,1175.5,164.2z M1061.6,128.7l-4.4,4.7l-0.3-1l4-4
		L1061.6,128.7z M1067,125.4l-4.4,3.4l-0.3-1.3l4-3L1067,125.4z M1120.2,157.5c-2.2-3.4-3.6-5.9-4-7.7c-2.9,2-7.6,5.8-14.1,11.4
		c0.2-1.3,1.1-3,2.7-5c-10.3,12.7-17.8,26.9-22.4,42.5c-0.9-1.3-1.5-2-1.7-2c-1.6,0-3.1,2.7-4.5,8c-1.5,5.4-2.2,9.2-2.2,11.4
		c0,4.5,1,10.3,3,17.4c8.9-2.5,17.5-9,25.8-19.8c8.3-10.7,12.3-20.4,12.1-29.1c0.9,0.5,1.6-0.2,2-2l1-2.3c-1.8-0.7-3.7-1.4-5.7-2.3
		c0.2-1.1,0.3-2,0.3-2.7c0-2.2-3.6-4.2-10.7-6l8.4-0.3c1.1,0.5,2.7,1.5,4.7,3c0.2-0.7,0.6-1.4,1-2.3c-1.3,0-2.1-0.1-2.3-0.3
		c1.1-1.1,1.6-2,1.3-2.7c-0.9-0.7-2.1-1.6-3.7-2.7c3.4-1.1,5.6-2.6,6.7-4.4c-0.7-0.9-1.6-1.9-2.7-3c0.7,0,1.6,0.2,2.7,0.5
		C1119,157.3,1119.8,157.5,1120.2,157.5z M1090.4,108.6h-2v-1.3h2V108.6z M1104.8,108.9c-2.5,0.7-7.5,2.3-15.1,5h3
		C1094.1,114.2,1098.1,112.5,1104.8,108.9z M1094.8,106.9h-2v-1.3h2V106.9z M1109.5,179h-1.7v-1.3h1.7V179z M1169.1,124h-1.3v-3h1.3
		V124z"/>
</g>
</svg>
